<svg height="512" viewBox="0 0 64 64" width="512" xmlns="http://www.w3.org/2000/svg"><g id="Fill_Outline" data-name="Fill Outline"><g id="Color"><path d="m40 12h10v5h-10z" fill="#48cae4"/><path d="m40 17h10v5h-10z" fill="#ff7373"/><path d="m46.54 17h-6.54v-5h6v3a3.989 3.989 0 0 0 .54 2z" fill="#00b4d8"/><path d="m50 19v3h-10v-5h6.54a3.98 3.98 0 0 0 3.46 2z" fill="#ef5350"/><path d="m34 34h-4v-26a2 2 0 0 1 2-2 2 2 0 0 1 2 2z" fill="#e9f1f2"/><path d="m34 8h10v5h-10z" fill="#48cae4"/><path d="m34 13h10v5h-10z" fill="#ff7373"/><path d="m40 22v-4h4a6.327 6.327 0 0 1 -4 4z" fill="#e53935"/><path d="m40.54 13h-6.54v-5h6v3a3.989 3.989 0 0 0 .54 2z" fill="#00b4d8"/><path d="m44 15v3h-10v-5h6.54a3.98 3.98 0 0 0 3.46 2z" fill="#ef5350"/><path d="m34 29.46v4.54h-4v-26a2.006 2.006 0 0 1 2-2v20a3.98 3.98 0 0 0 2 3.46z" fill="#d0d8da"/><path d="m61 61h-58a28.96 28.96 0 0 1 15.9-25.87 4.663 4.663 0 0 1 3.66-.25 3.786 3.786 0 0 0 1.26.21l1.18-.01a3.694 3.694 0 0 0 1.844-.512l.826-.488a5.537 5.537 0 0 0 .757-.582 5.122 5.122 0 0 1 3.4-1.5h.173a28.958 28.958 0 0 1 23.147 11.521 6.624 6.624 0 0 1 1.072 5.417 3.692 3.692 0 0 0 -.019 1.414l.2 1.16a3.789 3.789 0 0 0 .81 1.73l.62.75a3.78 3.78 0 0 0 .625.588 6.506 6.506 0 0 1 2.505 4.885q.04.764.04 1.537z" fill="#f9dbaf"/><path d="m61 61h-58a28.9 28.9 0 0 1 11.56-23.16 43.071 43.071 0 0 0 45.79 19.14 6.851 6.851 0 0 1 .61 2.48c.03.51.04 1.02.04 1.54z" fill="#edb88e"/><path d="m41 37 4.121-4.713a13.332 13.332 0 0 0 7.45 4.8l.142.034-2.713 4.879h-.169a10.3 10.3 0 0 1 -8.831-5z" fill="#f9dbaf"/><path d="m21.886 46.557 1.178-.589a3.728 3.728 0 0 1 3.736.232 3.732 3.732 0 0 1 1.55 2.2l.25 1a3.728 3.728 0 0 1 -.515 2.973l-.536.8a3.723 3.723 0 0 1 -1.435 1.267l-1.053.526a3.727 3.727 0 0 1 -3.905-.352l-.665-.5a3.733 3.733 0 0 1 -1.491-2.978v-.007a3.729 3.729 0 0 1 .626-2.068l.825-1.237a3.723 3.723 0 0 1 1.435-1.267z" fill="#edb88e"/><path d="m46.816 55.456.6-.4a2.861 2.861 0 0 1 3.17 0l.143.1a2.857 2.857 0 0 1 1.271 2.373v.24a2.857 2.857 0 0 1 -2.164 2.772l-.61.153a2.861 2.861 0 0 1 -2.278-.4l-.132-.089a2.857 2.857 0 0 1 -1.126-3.28 2.858 2.858 0 0 1 1.126-1.469z" fill="#edb88e"/><path d="m32.816 39.456.6-.4a2.861 2.861 0 0 1 3.17 0l.143.1a2.857 2.857 0 0 1 1.271 2.373v.24a2.857 2.857 0 0 1 -2.164 2.772l-.61.153a2.861 2.861 0 0 1 -2.278-.4l-.132-.089a2.857 2.857 0 0 1 -1.126-3.28 2.858 2.858 0 0 1 1.126-1.469z" fill="#edb88e"/><circle cx="37" cy="53" fill="#edb88e" r="2"/><circle cx="11" cy="55" fill="#edb88e" r="2"/><g fill="#da9367"><path d="m36.728 39.152-.143-.1a2.861 2.861 0 0 0 -3.17 0l-.6.4a2.838 2.838 0 0 0 -.851.9l.45-.3a2.861 2.861 0 0 1 3.17 0l.143.1a2.857 2.857 0 0 1 1.273 2.377v.24a2.846 2.846 0 0 1 -.4 1.451 2.852 2.852 0 0 0 1.4-2.451v-.24a2.857 2.857 0 0 0 -1.272-2.377z"/><path d="m37 51a2 2 0 0 0 -1.82 1.18 1.974 1.974 0 0 1 .82-.18 1.992 1.992 0 0 1 1.82 2.82 2 2 0 0 0 -.82-3.82z"/><path d="m11 53a2 2 0 0 0 -1.82 1.18 1.974 1.974 0 0 1 .82-.18 1.992 1.992 0 0 1 1.82 2.82 2 2 0 0 0 -.82-3.82z"/><path d="m28.6 49.4-.25-1a3.729 3.729 0 0 0 -5.29-2.43l-1.17.59a3.727 3.727 0 0 0 -1.44 1.26l-.82 1.24a3.709 3.709 0 0 0 -.63 2.07v.01a3.732 3.732 0 0 0 1.49 2.98l.67.5a3.74 3.74 0 0 0 3.9.35l1.05-.53a3.727 3.727 0 0 0 1.44-1.26l.53-.81a3.711 3.711 0 0 0 .52-2.97zm-6.42-2.48a3.72 3.72 0 0 1 5.17 2.48l.25 1a3.22 3.22 0 0 1 .1.75 43.63 43.63 0 0 1 -5.52-4.23z"/><path d="m52 57.53v.24a2.856 2.856 0 0 1 -2.16 2.77l-.61.15a2.829 2.829 0 0 1 -2.28-.39l-.13-.09a2.8 2.8 0 0 1 -1.26-2.56 41.437 41.437 0 0 0 5.38.35 2.819 2.819 0 0 0 -1.21-1.85l-.15-.09a2.84 2.84 0 0 0 -3.16 0l-.45.3a2.613 2.613 0 0 1 .85-.9l.6-.4a2.84 2.84 0 0 1 3.16 0l.15.09a2.866 2.866 0 0 1 1.27 2.38z"/><path d="m15.315 39.9-4.278 1.078a28.97 28.97 0 0 0 -5.724 8.674 7.152 7.152 0 0 0 8.94-4.721 33.643 33.643 0 0 0 1.038-4.863z"/></g><path d="m9.1 48.1-4.088-4.74a13.334 13.334 0 0 0 5.8-6.7l.053-.135 4.45 3.375-.024.168a10.3 10.3 0 0 1 -6.191 8.032z" fill="#edb88e"/><path d="m56.16 45.6a13.417 13.417 0 0 1 -15.16-8.6 10.3 10.3 0 0 0 8.83 5h.17l1.42-2.55a29.336 29.336 0 0 1 3.73 4.07 5.826 5.826 0 0 1 1.01 2.08z" fill="#edb88e"/></g><g id="Outline_copy" fill="#323232" data-name="Outline copy"><path d="m5.714 48.709a1 1 0 0 0 -1.313.527 29.757 29.757 0 0 0 -2.401 11.764 1 1 0 0 0 2 0 27.772 27.772 0 0 1 2.24-10.978 1 1 0 0 0 -.526-1.313z"/><path d="m61.959 59.412a7.54 7.54 0 0 0 -2.906-5.635 2.734 2.734 0 0 1 -.452-.424l-.624-.754a2.781 2.781 0 0 1 -.592-1.259l-.2-1.168a2.67 2.67 0 0 1 .014-1.031 7.589 7.589 0 0 0 -1.253-6.225 29.984 29.984 0 0 0 -3.282-3.647l.924-1.663a1 1 0 0 0 -.643-1.458l-.142-.034a12.37 12.37 0 0 1 -6.891-4.44 1 1 0 0 0 -.761-.386 1.031 1.031 0 0 0 -.782.341l-4.121 4.713a1 1 0 1 0 1.506 1.316l3.356-3.838a14.4 14.4 0 0 0 6.113 3.925l-2.1 3.769a1 1 0 0 0 1.748.972l.786-1.414a27.691 27.691 0 0 1 2.69 3.05 5.617 5.617 0 0 1 .89 4.61 4.659 4.659 0 0 0 -.025 1.788l.2 1.174a4.779 4.779 0 0 0 1.022 2.183l.627.758a4.735 4.735 0 0 0 .791.745 5.525 5.525 0 0 1 2.105 4.135q.043.738.043 1.485a1 1 0 0 0 2 0q0-.8-.041-1.588z"/><path d="m15.246 38.589a27.762 27.762 0 0 1 4.11-2.569 3.669 3.669 0 0 1 2.873-.2 4.8 4.8 0 0 0 1.6.266l1.18-.01a4.7 4.7 0 0 0 2.344-.651l.827-.488a6.41 6.41 0 0 0 .927-.709 4.205 4.205 0 0 1 2.723-1.228h.17a28.018 28.018 0 0 1 7.146.924 1 1 0 0 0 .511-1.934 29.917 29.917 0 0 0 -4.657-.825v-12.165h4v3a1 1 0 0 0 1 1h10a1 1 0 0 0 1-1v-10a1 1 0 0 0 -1-1h-5v-3a1 1 0 0 0 -1-1h-9.184a2.993 2.993 0 0 0 -5.816 1v9a1 1 0 0 0 2 0v-9a1 1 0 0 1 2 0v23.032c-.333-.011-.666-.032-1-.032h-.178a5.2 5.2 0 0 0 -.822.092v-10.092a1 1 0 0 0 -2 0v10.846a7.311 7.311 0 0 0 -1.252.917 4.617 4.617 0 0 1 -.586.456l-.827.488a2.691 2.691 0 0 1 -1.343.373l-1.172.01a2.758 2.758 0 0 1 -.93-.154 5.674 5.674 0 0 0 -4.442.3 29.913 29.913 0 0 0 -4.852 3.1l-2.126-1.609a1 1 0 0 0 -1.533.428l-.055.138a12.377 12.377 0 0 1 -5.365 6.2 1 1 0 0 0 -.263 1.522l4.086 4.741a1 1 0 1 0 1.515-1.306l-3.327-3.863a14.391 14.391 0 0 0 4.746-5.5l3.437 2.6a1 1 0 1 0 1.208-1.587zm19.754-24.589h8v3h-8zm7.387 5a5.364 5.364 0 0 1 -1.387 1.387v-1.387zm2.613-1h4v3h-5.666a7.3 7.3 0 0 0 1.582-2.6zm4-5v3h-4v-3zm-6-1h-8v-3h8z"/><path d="m29.32 48.156a4.729 4.729 0 0 0 -6.7-3.083l-1.178.59a4.722 4.722 0 0 0 -1.82 1.606l-.825 1.237a4.736 4.736 0 0 0 1.1 6.412l.664.5a4.731 4.731 0 0 0 2.276.907c.041 0 .081.007.12.007a1 1 0 0 0 .117-1.994 2.726 2.726 0 0 1 -1.313-.52l-.664-.5a2.737 2.737 0 0 1 -.634-3.7l.825-1.237a2.734 2.734 0 0 1 1.05-.926l1.179-.59a2.727 2.727 0 0 1 3.867 1.779l.251 1a2.737 2.737 0 0 1 -.377 2.176l-.536.8a2.707 2.707 0 0 1 -.589.61 1 1 0 1 0 1.236 1.57 4.671 4.671 0 0 0 1.012-1.068l.536-.8a4.736 4.736 0 0 0 .653-3.77z"/><path d="m51.281 54.318-.141-.093a3.841 3.841 0 0 0 -4.279 0l-.6.4a3.857 3.857 0 0 0 0 6.42l.13.086a3.8 3.8 0 0 0 1.613.6.925.925 0 0 0 .138.01 1 1 0 0 0 .136-1.991 1.838 1.838 0 0 1 -.779-.288l-.131-.087a1.857 1.857 0 0 1 0-3.089l.6-.4a1.849 1.849 0 0 1 2.061 0l.141.094a1.853 1.853 0 0 1 .83 1.549v.241a1.841 1.841 0 0 1 -.176.767 1 1 0 0 0 1.818.833 3.829 3.829 0 0 0 .358-1.6v-.241a3.852 3.852 0 0 0 -1.719-3.211z"/><path d="m35.468 45.664.611-.153a3.851 3.851 0 0 0 2.921-3.741v-.241a3.852 3.852 0 0 0 -1.719-3.211l-.141-.093a3.841 3.841 0 0 0 -4.279 0l-.6.4a3.857 3.857 0 0 0 0 6.42l.131.086a3.865 3.865 0 0 0 3.074.534zm-2.1-2.286a1.857 1.857 0 0 1 0-3.089l.6-.4a1.844 1.844 0 0 1 1.032-.313 1.863 1.863 0 0 1 1.033.314l.141.094a1.853 1.853 0 0 1 .826 1.545v.241a1.855 1.855 0 0 1 -1.406 1.8l-.611.152a1.855 1.855 0 0 1 -1.482-.258z"/><path d="m37 50a3 3 0 1 0 3 3 3 3 0 0 0 -3-3zm0 4a1 1 0 1 1 1-1 1 1 0 0 1 -1 1z"/><path d="m11 52a3 3 0 1 0 3 3 3 3 0 0 0 -3-3zm0 4a1 1 0 1 1 1-1 1 1 0 0 1 -1 1z"/></g></g></svg>