<svg id="Layer_1" height="512" viewBox="0 0 512 512" width="512" xmlns="http://www.w3.org/2000/svg" data-name="Layer 1"><path d="m85.17 186.79s32.31 145.81 171.83 141.81l-.74-55.21-63.5-156s-93.11 57.99-107.59 69.4z" fill="#0d2228"/><path d="m426.83 186.79s-33.53 143.61-173.04 139.61l.74-55.21 85.78-158s72.04 62.19 86.52 73.6z" fill="#0d2228"/><path d="m85.17 186.79s47 102 104.63 118.44l-8 9.21s-83.93-41.7-96.63-127.65z" fill="#364d5c"/><path d="m426.83 186.79s-48.61 103.38-106.25 119.88l8 9.2s85.55-43.13 98.25-129.08z" fill="#364d5c"/><path d="m324.2 446.89c7.52-16.75 11.87-36.69 11.87-58.09 0-20.93-4.16-40.46-11.4-57a110.2 110.2 0 0 0 -9.31-17.2 88.47 88.47 0 0 0 -13.36-15.91 68.83 68.83 0 0 0 -14.36-10.45 59.19 59.19 0 0 0 -5.86-2.8 53.92 53.92 0 0 0 -20.61-4.12 54.92 54.92 0 0 0 -25 6.15 68 68 0 0 0 -14.31 9.86 89.79 89.79 0 0 0 -16.61 20 112.18 112.18 0 0 0 -8.69 17.17 143.71 143.71 0 0 0 -10.27 54.27c0 21.4 4.36 41.34 11.88 58.09h126.03z" fill="#f88f1c"/><path d="m152.63 418c-.19 5.78 9.91 14.32 19.88 15.05.12 0 .64 0 .76.05 10.32 1.82 21-5.12 21.27-10.83 2.27-42.6 12.5-75.15 48.88-106.59-8-9.15-15.61-18.39-23.31-27.76-49.96 35.15-65.83 78.16-67.48 130.08z" fill="#ed7e11"/><path d="m207 314.26c5.76-6.39 14.61-10.75 21.41-16.51-.06.21-.21-.11-.26-.17-2.18-2.43-5.87-7-7.43-8.89-1.08-1.34.07.06-.42-.55s.15.19-.17-.21c-50.07 35-65.58 78.35-67.67 129.92-.17 4.14 5.8 10.45 11.56 13.06-.59-41.85 12.49-82.82 42.98-116.65z" fill="#ffa143"/><path d="m370.38 418.22c.23 5.78-9.79 14.41-19.75 15.22-.12 0-.64 0-.76.05-10.31 1.91-21-4.94-21.36-10.66-2.63-42.58-13.12-75-49.76-106.18 7.94-9.22 15.46-18.51 23.08-27.95 50.25 34.72 66.48 77.6 68.55 129.52z" fill="#f88f1c"/><path d="m315.17 314.92c-5.81-6.35-14.69-10.64-21.54-16.34.06.21.21-.11.26-.17 2.16-2.45 5.82-7 7.35-9 1.08-1.35-.07.06.42-.55s-.15.19.16-.21c50.36 34.56 66.23 77.8 68.75 129.35.21 4.14-5.72 10.5-11.45 13.15.23-41.79-13.2-82.66-43.95-116.23z" fill="#ffa143"/><path d="m243.8 400.15c0-66.61 17.35-118.83 17.35-118.83a54.86 54.86 0 0 0 -25 6.15 68 68 0 0 0 -14.31 9.86 89.79 89.79 0 0 0 -16.61 20 111.28 111.28 0 0 0 -8.69 17.17 143.52 143.52 0 0 0 -10.27 54.27c0 21.4 4.36 41.34 11.87 58.09h48.86a320.31 320.31 0 0 1 -3.2-46.71z" fill="#ed7e11"/><path d="m286.2 446.89c14.08-12.19 23.5-34.33 23.5-59.64a93.07 93.07 0 0 0 -6.94-35.87q-5.52-13.12-10-26.67t-7.92-27.52a51.58 51.58 0 0 0 -5.26-2.51l-.12-.05-.68-.27-.71-.27c-.6-.22-1.2-.44-1.82-.64l-1.39-.44h-.12c-.42-.13-.85-.25-1.28-.36h-.15c-.48-.13-1-.25-1.45-.36l-1.5-.32c-.43-.09-.86-.17-1.3-.24l-.49-.08-.8-.12-.66-.08c-.4-.06-.81-.11-1.21-.14a4.28 4.28 0 0 0 -.49-.05l-1.14-.09h-.05c-.51 0-1-.06-1.52-.08s-1.05 0-1.57 0a49.25 49.25 0 0 0 -22.42 5.5c-2.74 10-5.89 19.84-9.35 29.59q-4.54 12.78-9.82 25.29a93 93 0 0 0 -6.93 35.87c0 25.31 9.41 47.45 23.48 59.64h50.11z" fill="#fed9be"/><ellipse cx="258.72" cy="301.37" opacity=".11" rx="65.95" ry="22.73"/><path d="m408.11 248.47s-46.79 65.25-153.11 65.25-153.11-65.25-153.11-65.25c9.9 0 18.9-4.87 26.54-11.42 8.75-7.52 13.62-17.33 16.76-28.44a187.12 187.12 0 0 0 4.62-23.73c7.62-53.11 30.56-113.48 105.19-113.48 2.09 0 4.15 0 6.17.13 72 3.16 97.85 61.7 105.27 113.35 1.18 8.22 1.52 16.16 2.39 23.51 1.33 11.21 3.94 21.09 12.75 28.66 7.63 6.55 16.63 11.42 26.53 11.42z" fill="#ed7e11"/><path d="m261.16 71.53s-6.16 43.52-6.16 112.58 8.79 97 6.16 130.16c-116.79 0-159.28-65.8-159.28-65.8 9.9 0 18.9-4.87 26.54-11.42 8.75-7.52 13.62-17.33 16.76-28.44a187.12 187.12 0 0 0 4.62-23.73c7.63-53.11 30.57-113.48 105.2-113.48 2.08 0 4.14.05 6.16.13z" fill="#ed7e11"/><path d="m279.2 270.51c-4.63-80.34 32.19-131.89 60-159-16.39-22.29-41.15-38.42-78-40-2-.08-4.08-.13-6.18-.13-38.3 0-63 15.92-79 38.58 27.94 26.65 75.19 78.64 70.47 160.57-1.34 23.15-16.93 35.64-27 40.6a241.07 241.07 0 0 0 35.51 2.55 239.14 239.14 0 0 0 40.82-3.41c-9.25-5.46-15.35-17.83-16.62-39.76z" fill="#fc9229"/><path d="m408.11 248.47s-45.57 66.47-153.11 66.47-153.11-66.47-153.11-66.47c9.9 0 18.9-4.87 26.54-11.42 8.75-7.52 13.62-17.33 16.76-28.44 16.71 1.22 39-12.89 57.73 7.85 28.94 32.13 60.13 6 60.13 6s29.82 26 53.65-7.75c17.43-24.71 35.1-5.83 52.13-6.35 1.33 11.21 3.94 21.09 12.75 28.66 7.63 6.58 16.63 11.45 26.53 11.45z" fill="#fed9be"/><path d="m270.44 173.53c0-23.86 19.36-32 43.22-32s43.21 8.15 43.21 32a43.22 43.22 0 0 1 -86.43 0z" fill="#fff"/><path d="m356.91 178.11a43.26 43.26 0 1 1 -86.51 0 40.22 40.22 0 0 1 .2-4.13 43.25 43.25 0 0 0 86.11 0 40.22 40.22 0 0 1 .2 4.13z" fill="#f2f2f2"/><path d="m161.31 173.53c0-23.86 19.36-32 43.22-32s43.21 8.15 43.21 32a43.22 43.22 0 0 1 -86.43 0z" fill="#fff"/><path d="m247.78 178.11a43.26 43.26 0 1 1 -86.51 0 40.22 40.22 0 0 1 .2-4.13 43.25 43.25 0 0 0 86.11 0 40.22 40.22 0 0 1 .2 4.13z" fill="#f2f2f2"/><path d="m330.58 131.43s-40.71-10.06-43.38-14.14 7.72-15.94 16-13.66 30.35 16.13 30.26 22.13-2.88 5.67-2.88 5.67z" fill="#663612"/><path d="m332.36 130.42q0-.33 0-.72c.09-6-22-19.85-30.26-22.12-5.83-1.6-12.7 3.78-15.34 8.54-.54-4.8 8.83-14.57 16.42-12.49 8.29 2.27 30.35 16.14 30.26 22.13 0 2.48-.5 3.88-1.08 4.66z" fill="#753c15"/><path d="m176.3 139.14s38.35-17 40.28-21.44-10.37-14.36-18.14-10.7-27.09 21.15-26 27 3.86 5.14 3.86 5.14z" fill="#663612"/><path d="m174.37 138.46a6.61 6.61 0 0 1 -.15-.7c-1.13-5.89 18.2-23.36 26-27 5.47-2.58 13.16 1.53 16.59 5.75-.31-4.81-11.22-12.82-18.34-9.45-7.77 3.68-27.1 21.15-26 27 .46 2.44 1.19 3.72 1.9 4.4z" fill="#753c15"/><path d="m275 223.13c0-4.39-6-7.94-13.38-7.94s-13.38 3.55-13.38 7.94a5.65 5.65 0 0 0 1.76 3.87c2.24 2.32 4.41 4.69 6.48 7.15a6.54 6.54 0 0 0 10.3 0c2.08-2.46 4.25-4.83 6.48-7.15a5.61 5.61 0 0 0 1.74-3.87z" fill="#663612"/><path d="m275 223.13a4.7 4.7 0 0 1 -.21 1.4c-1.12-3.71-6.59-6.53-13.17-6.53s-12 2.82-13.16 6.53a4.41 4.41 0 0 1 -.22-1.4c0-4.39 6-7.94 13.38-7.94s13.38 3.55 13.38 7.94z" fill="#753c15"/><path d="m305.87 198.75a6.17 6.17 0 1 0 -5.06 5 6.17 6.17 0 0 0 5.06-5z" fill="#4d2116"/><path d="m233.29 198.75a6.17 6.17 0 1 0 -5.06 5 6.18 6.18 0 0 0 5.06-5z" fill="#4d2116"/><path d="m255 310.32c-71.36 0-147.41-61.85-153.11-61.85 0 0 45.55 66.47 153.11 66.47s153.12-66.47 153.12-66.47c-5.71 0-81.77 61.85-153.12 61.85z" fill="#f7ccb0"/><path d="m129.34 490.88h262.62v15.12h-262.62z" fill="#7b8c9a"/><path d="m152.08 340.19 239.92 156.28v-144.92s.53-13.22-13.17-14l-215.83.03s-7.84-.72-10.92 2.61z" fill="#acbac2"/><path d="m392 496.47-262.61.08v-107.88a51.22 51.22 0 0 1 51.23-51.23h159a51.22 51.22 0 0 1 51.23 51.23z" fill="#acbac2"/><path d="m385.58 339.41-256.24 157.14v-144.92s-.53-13.22 13.17-14l215.77.06s24.22-1.61 27.3 1.72z" fill="#ced9dd"/><g fill="#fff"><rect height="53.08" rx="14.08" width="58.5" x="231.4" y="388.95"/><rect height="22.04" rx="3.05" width="11.49" x="240.99" y="435.42"/><rect height="22.04" rx="3.05" width="11.49" x="254.9" y="436.55"/><rect height="22.04" rx="3.05" width="11.49" x="269.12" y="435.42"/></g><path d="m239.31 416.1a7.13 7.13 0 1 1 7.12 7.13 7.13 7.13 0 0 1 -7.12-7.13z" fill="#acbac2"/><path d="m266.1 416.1a7.12 7.12 0 1 1 7.11 7.13 7.12 7.12 0 0 1 -7.11-7.13z" fill="#acbac2"/><path d="m85.17 186.79s172.44-46.23 341.66 0c0 0-166.01-406.74-341.66 0z" fill="#143441"/><path d="m256 6.12v160.16s-89.58-.06-170.83 20.51c0 0 69.83-186.27 170.83-180.67z" fill="#364d5c"/><path d="m237.44 284.79s56.52 4.64 62.09-29.49c0 0 5.95 46.2-62.09 29.49z" fill="#663612"/></svg>