<svg id="Layer_1" height="512" viewBox="0 0 512 512" width="512" xmlns="http://www.w3.org/2000/svg" data-name="Layer 1"><path d="m283.83 111.91h-61.23s26.88 41.19 12.69 76.29h35.84c-14.13-35.1 12.7-76.29 12.7-76.29z" fill="#fab131"/><path d="m239 188.2s13.81-33.26-3.36-77.57c0 0 20.81 45.86 8.82 77.57z" fill="#fdc84c"/><path d="m267.94 188.2s-13.8-33.26 3.36-77.57c0 0-20.8 45.86-8.81 77.57z" fill="#fdc84c"/><path d="m252.12 123.38s3.15 53.2-2.31 64.82h7.27s-4.19-61.55-3.63-65.5z" fill="#fdc84c"/><path d="m293.91 120.3s30.86-6.46 22.75-44z" fill="#f98a2e"/><path d="m293.91 120.3s35.15-3.56 22.75-44" fill="#f98a2e"/><path d="m313.24 71.84a29.28 29.28 0 0 0 1.77-3c5.92-11.84 3-25.29-6.45-30-6.54-3.26-14.51-1.54-20.76 3.72.94-4.87-.43-9.42-3.91-11.43-4-2.31-9.51-.54-13.47 3.94.41-4.28-1-8.12-4.13-9.91-2.59-1.5-5.82-1.27-8.85.28-7-10-20.8-14.25-33.52-9.42-13.25 5-20.85 18.19-18.58 30.83-4.11-1.35-8.19-.79-10.63 1.88s-2.61 6.45-1.12 10.28c-9.25 3-16-.17-16 12.41 0 15 9.58 40.92 21.48 40.92a18.17 18.17 0 0 0 10.48-3.42c.5 7 3.09 12.17 7.4 13.5s9.29-1.47 13.6-6.87c2.89 5.08 7.27 8.59 12.54 9.36 7.67 1.11 15.18-3.84 19.72-12 2.25 2.57 4.76 3.89 7.07 3.36 1.86-.42 3.32-2 4.31-4.25 6.61 7 16.47 11 24.36 6.84 5.16-2.72 8.67-3.85 12.14-11.23a48.92 48.92 0 0 0 4.31-14.72c.92-7.2 1.37-15.52 1.59-18.59.33-4.74 1.27-.38-3.35-2.48z" fill="#f98a2e"/><path d="m317.94 57.53a28 28 0 0 0 1.84-2.71c6.12-10.54 3.13-22.51-6.68-26.73-6.77-2.9-15-1.37-21.48 3.31 1-4.34-.44-8.38-4-10.17-4.15-2.06-9.85-.48-13.95 3.5.43-3.81-1.05-7.22-4.27-8.82a10.84 10.84 0 0 0 -9.15.25c-7.25-8.93-21.56-12.68-34.72-8.38-13.71 4.49-21.53 16.22-19.22 27.44-4.26-1.2-8.48-.7-11 1.67s-2.71 5.74-1.16 9.15c-9.58 2.71-16.64 12.13-16.64 23.33 0 13.33 10 24.13 22.31 24.13a20.85 20.85 0 0 0 10.84-3c.52 6.21 3.2 10.84 7.65 12s9.62-1.31 14.08-6.11a18.19 18.19 0 0 0 13 8.32c7.93 1 15.69-3.41 20.39-10.68 2.33 2.28 4.93 3.46 7.32 3a6.47 6.47 0 0 0 4.46-3.78c6.84 6.25 16.56 8.91 25.21 6.08 10-3.26 15.37-12.81 13.91-23 4.91-1.33 8.53-4.7 8.86-8.85s-2.82-8.08-7.6-9.95z" fill="#fab131"/><g fill="#fdc84c"><path d="m254.27 46s8.76 9.44 15.37 10.94l-8.78-17.26z"/><path d="m281.94 35.33a12.74 12.74 0 0 0 -17.05-.18c1.07-3.38.72-6.41-1.17-7.71-2.35-1.6-6.31 0-9.52 3.53a21.06 21.06 0 0 0 -40.72 7.57 21.41 21.41 0 0 0 .31 3.51 8.61 8.61 0 1 0 3.59 8.66 21 21 0 0 0 36.87-4.71c2.08-.25 4.51-1.7 6.64-4a12.73 12.73 0 1 0 21.05-6.61z"/><ellipse cx="189.29" cy="69.46" rx="7.67" ry="10.92"/><ellipse cx="311.64" cy="43.14" rx="7.67" ry="10.92"/></g><path d="m280.32 159.89a8.3 8.3 0 0 0 .83-.85c2.77-3.29 1.42-7-3-8.35a13.8 13.8 0 0 0 -9.69 1 2.45 2.45 0 0 0 -1.82-3.18 7.63 7.63 0 0 0 -6.29 1.1 2.48 2.48 0 0 0 -1.92-2.76 6.87 6.87 0 0 0 -4.13.08c-3.27-2.79-9.71-4-15.64-2.62-6.19 1.4-9.73 5.06-8.67 8.58a7.09 7.09 0 0 0 -5 .52 1.89 1.89 0 0 0 -.53 2.86c-4.31.85-7.46-.05-7.46 3.45 0 4.17 4.46 11.38 10 11.38a12.61 12.61 0 0 0 4.89-.95 4.1 4.1 0 0 0 3.45 3.76 8.55 8.55 0 0 0 6.35-1.91 9.14 9.14 0 0 0 5.85 2.6 11.46 11.46 0 0 0 9.2-3.34 4.84 4.84 0 0 0 3.3.93 2.85 2.85 0 0 0 2-1.18c3.09 2 7.69 3.06 11.37 1.9 2.41-.75 4-1.07 5.67-3.12a10.21 10.21 0 0 0 2-4.07c.43-2 .64-4.32.74-5.17.18-1.29.66-.08-1.5-.66z" fill="#f98a2e"/><path d="m282.52 155.91a7.91 7.91 0 0 0 .86-.76c2.85-2.93 1.46-6.26-3.12-7.43a16.36 16.36 0 0 0 -10 .92c.45-1.21-.21-2.33-1.89-2.83a9 9 0 0 0 -6.51 1c.2-1.06-.49-2-2-2.46a8.27 8.27 0 0 0 -4.27.07c-3.38-2.48-10-3.53-16.18-2.33-6.4 1.25-10.07 4.5-9 7.63a8.49 8.49 0 0 0 -5.14.47 1.55 1.55 0 0 0 -.54 2.54c-4.46.76-7.76 3.38-7.76 6.49 0 3.71 4.66 6.71 10.41 6.71a15 15 0 0 0 5.06-.84 3.92 3.92 0 0 0 3.57 3.34 9.86 9.86 0 0 0 6.57-1.7 10.12 10.12 0 0 0 6.05 2.31 13 13 0 0 0 9.52-3 5.68 5.68 0 0 0 3.42.84 3.15 3.15 0 0 0 2.08-1.06 18.48 18.48 0 0 0 11.76 1.7c4.66-.91 7.17-3.57 6.49-6.4 2.29-.37 4-1.31 4.14-2.46s-1.29-2.23-3.52-2.75z" fill="#fab131"/><path d="m252.81 152.69s4.08 2.63 7.17 3.05l-4.09-4.81z" fill="#fdc84c"/><path d="m265.72 149.73a9.18 9.18 0 0 0 -8 0c.5-.94.34-1.78-.54-2.14-1.1-.45-2.94 0-4.45 1-1.42-2.19-5-3.75-9.16-3.75-5.43 0-9.84 2.62-9.84 5.86a3.57 3.57 0 0 0 .15 1 5.93 5.93 0 0 0 -5.57.62c-1.25 1.09-.78 2.58 1 3.32a5.87 5.87 0 0 0 5.57-.62 1.89 1.89 0 0 0 .63-.91 12.74 12.74 0 0 0 8 2.49c4.21 0 7.79-1.58 9.19-3.8a6.85 6.85 0 0 0 3.1-1.12c-.45 1.2.15 2.49 1.77 3.38a9 9 0 0 0 8.4-.21c2.33-1.55 2.17-3.79-.25-5.12z" fill="#fdc84c"/><ellipse cx="222.48" cy="159.23" fill="#fdc84c" rx="3.58" ry="3.04"/><ellipse cx="279.58" cy="151.91" fill="#fdc84c" rx="3.58" ry="3.04"/><path d="m312.39 506a128.22 128.22 0 0 0 .4-99.66 95.79 95.79 0 0 0 -8.06-14.9 76.62 76.62 0 0 0 -11.57-13.78 59.68 59.68 0 0 0 -12.44-9.05 51.27 51.27 0 0 0 -5.08-2.43 46.68 46.68 0 0 0 -17.85-3.56 47.67 47.67 0 0 0 -21.68 5.32 59.34 59.34 0 0 0 -12.39 8.54 77.74 77.74 0 0 0 -14.38 17.35 97.53 97.53 0 0 0 -7.53 14.86 128.4 128.4 0 0 0 1.4 97.31z" fill="#f88f1c"/><path d="m120.25 466.22c-1.72 4.7 4.28 14.46 12.28 17.76.09 0 .52.19.61.24 8 4.3 18.64 1.47 20.43-3.15 13.4-34.44 30.62-58.45 69.05-74.47-4.12-9.69-7.87-19.34-11.67-29.14-50.6 15.38-75.3 46.47-90.7 88.76z" fill="#ed7e11"/><path d="m193 395.56c6.47-3.7 14.93-4.89 22.08-7.79-.1.15-.14-.15-.17-.21-1.13-2.59-2.94-7.32-3.7-9.32-.53-1.4 0 .07-.2-.57s.07.2-.08-.21c-50.66 15.23-75.15 46.71-90.83 88.57-1.25 3.36 2 10.17 6 13.87 10.9-34.58 32.71-64.75 66.9-84.34z" fill="#ffa143"/><path d="m391.75 463c1.72 4.71-4.28 14.47-12.28 17.77-.09 0-.52.19-.61.24-8 4.29-18.64 1.46-20.43-3.16-13.4-34.43-30.62-58.44-69.05-74.46 4.12-9.7 7.87-19.35 11.67-29.15 50.6 15.38 75.3 46.47 90.7 88.76z" fill="#f88f1c"/><path d="m319 392.34c-6.47-3.7-14.93-4.89-22.08-7.79.1.15.14-.15.17-.21 1.13-2.59 2.94-7.33 3.7-9.32.53-1.4 0 .06.2-.57s-.07.19.08-.22c50.66 15.23 75.15 46.72 90.83 88.58 1.25 3.35-1.95 10.16-6 13.86-10.9-34.57-32.71-64.74-66.9-84.33z" fill="#ffa143"/><path d="m242.76 465.53c0-57.69 15-102.91 15-102.91a47.67 47.67 0 0 0 -21.68 5.32 59.34 59.34 0 0 0 -12.39 8.54 77.74 77.74 0 0 0 -14.38 17.35 97.53 97.53 0 0 0 -7.53 14.86 128.46 128.46 0 0 0 1.41 97.31h42.36a276.6 276.6 0 0 1 -2.79-40.47z" fill="#ed7e11"/><path d="m279.48 506c12.19-10.55 20.34-29.73 20.34-51.65a80.57 80.57 0 0 0 -6-31.06q-4.79-11.37-8.63-23.1t-6.87-23.83a44 44 0 0 0 -4.55-2.17l-.1-.05-.59-.23-.62-.23c-.51-.2-1-.38-1.57-.56l-1.21-.38h-.1c-.37-.12-.74-.23-1.11-.32h-.13c-.42-.12-.83-.22-1.25-.31s-.87-.2-1.31-.28-.74-.15-1.12-.21l-.43-.07-.68-.1-.58-.08-1.05-.12h-.42l-1-.09-1.32-.06c-.45 0-.91 0-1.36 0a42.67 42.67 0 0 0 -19.41 4.77c-2.38 8.63-5.11 17.18-8.1 25.62q-3.93 11.08-8.51 21.91a80.72 80.72 0 0 0 -6 31.06c0 21.92 8.15 41.1 20.34 51.65h43.37z" fill="#fed9be"/><ellipse cx="255.68" cy="379.98" opacity=".11" rx="57.11" ry="19.69"/><path d="m385.05 142.86s-3.28 107.55-44.05 113.56l-5.9-8.36-41.6-58.89s8.94-13.35 43.1-19.36c33.63-5.92 48-26.3 48.47-26.94z" fill="#fb8b00"/><path d="m306.5 197.53s5.69-6.21 23.87-6.6 27.26-10.11 27.26-10.11-10.25 55.46-31.87 55.33z" fill="#fed9be"/><path d="m385.05 142.86s-3.28 107.55-44.05 113.56l-5.9-8.36s8.91 1.68 25-25.33 24.67-78.6 25-79.86z" fill="#ee7900"/><path d="m121.6 142.86s3.28 107.55 44.08 113.56l5.9-8.36 41.6-58.89s-8.94-13.35-43.1-19.36c-33.63-5.92-48-26.3-48.48-26.94z" fill="#fb8b00"/><path d="m200.15 197.53s-5.7-6.21-23.87-6.6-27.28-10.11-27.28-10.11 10.25 55.46 31.87 55.33z" fill="#fed9be"/><path d="m121.6 142.86s3.28 107.55 44.08 113.56l5.9-8.36s-8.92 1.68-25-25.33-24.67-78.6-25-79.86z" fill="#ee7900"/><path d="m385.05 334.16s-40.52 56.51-132.6 56.51-132.59-56.51-132.59-56.51c8.57 0 16.36-4.21 23-9.89 7.58-6.51 11.79-15 14.51-24.62a162.06 162.06 0 0 0 4-20.56c6.61-46 26.48-98.27 91.1-98.27 1.81 0 3.59 0 5.34.11 62.37 2.74 84.74 53.43 91.17 98.16 1 7.12 1.32 14 2.07 20.37 1.15 9.7 3.41 18.26 11 24.81 6.63 5.73 14.43 9.89 23 9.89z" fill="#ed7e11"/><path d="m257.79 180.93s-5.34 37.69-5.34 97.5 7.62 84 5.34 112.73c-101.14 0-137.93-57-137.93-57 8.57 0 16.36-4.21 23-9.89 7.58-6.51 11.79-15 14.51-24.62a162.06 162.06 0 0 0 4-20.56c6.61-46 26.48-98.27 91.1-98.27 1.79 0 3.53.04 5.32.11z" fill="#ed7e11"/><path d="m273.42 353.26c-4-69.58 27.87-114.22 51.93-137.69-14.19-19.3-35.64-33.27-67.56-34.67-1.75-.07-3.53-.11-5.35-.11-33.17 0-54.54 13.78-68.39 33.41 24.2 23.08 65.12 68.11 61 139.06-1.16 20-14.67 30.86-23.42 35.15a213 213 0 0 0 66.13-.73c-7.96-4.68-13.25-15.43-14.34-34.42z" fill="#fc9229"/><path d="m385.05 334.16s-39.46 57.57-132.6 57.57-132.59-57.57-132.59-57.57c8.57 0 16.36-4.21 23-9.89 7.58-6.51 11.79-15 14.51-24.62 14.48 1.05 33.81-11.17 50 6.79 25.07 27.83 52.08 5.23 52.08 5.23s25.82 22.52 46.46-6.72c15.1-21.39 30.4-5.05 45.15-5.49 1.15 9.7 3.41 18.26 11 24.81 6.62 5.73 14.42 9.89 22.99 9.89z" fill="#fed9be"/><path d="m265.83 269.27c0-20.67 16.76-27.72 37.43-27.72s37.42 7 37.42 27.72a37.43 37.43 0 0 1 -74.85 0z" fill="#fff"/><path d="m340.72 273.24a37.47 37.47 0 0 1 -74.93 0 35.51 35.51 0 0 1 .18-3.59 37.45 37.45 0 0 0 74.57 0 35.51 35.51 0 0 1 .18 3.59z" fill="#f2f2f2"/><path d="m292.12 283.63a5.34 5.34 0 1 0 -4.38 4.34 5.34 5.34 0 0 0 4.38-4.34z" fill="#4d2116"/><path d="m336.22 251.26a36.55 36.55 0 0 1 2.2 6.63l-69.48 30.51a37.28 37.28 0 0 1 -3.4-6.11c-8.3-18.92 5.73-35 24.64-43.31s37.74-6.64 46.04 12.28z" fill="#ed7e11"/><path d="m171.32 269.27c0-20.67 16.77-27.72 37.43-27.72s37.42 7 37.42 27.72a37.43 37.43 0 0 1 -74.85 0z" fill="#fff"/><path d="m246.21 273.24a37.47 37.47 0 0 1 -74.93 0 35.51 35.51 0 0 1 .18-3.59 37.45 37.45 0 0 0 74.57 0 35.51 35.51 0 0 1 .18 3.59z" fill="#f2f2f2"/><path d="m220.92 283.54a5.34 5.34 0 1 1 4.39 4.34 5.34 5.34 0 0 1 -4.39-4.34z" fill="#4d2116"/><path d="m175.77 251.26a37.34 37.34 0 0 0 -2.2 6.63l69.49 30.51a36.51 36.51 0 0 0 3.39-6.11c8.31-18.92-5.72-35-24.64-43.31s-37.73-6.64-46.04 12.28z" fill="#ed7e11"/><path d="m307 209.63s-28.76 22.17-33 21.78-6.65-13.82-.64-18.21 27.3-11.88 31.32-8.59 2.32 5.02 2.32 5.02z" fill="#663612"/><path d="m307.28 207.88c-.14-.14-.3-.27-.47-.41-4-3.29-25.3 4.19-31.31 8.59-4.23 3.09-4.28 10.64-2.48 15-3.54-2.21-5.12-13.83.38-17.86 6-4.39 27.3-11.87 31.32-8.58a6.94 6.94 0 0 1 2.56 3.26z" fill="#753c15"/><path d="m208.14 209.19s26.88 24.42 31.1 24.38 7.74-13.25 2.1-18.11-26.24-14-30.51-11.09-2.69 4.82-2.69 4.82z" fill="#663612"/><path d="m208 207.42.5-.37c4.27-3 24.88 6.23 30.52 11.09 4 3.42 3.4 11 1.26 15.15 3.7-1.93 6.21-13.38 1.05-17.83-5.63-4.87-26.25-14.05-30.51-11.09a6.81 6.81 0 0 0 -2.82 3.05z" fill="#753c15"/><path d="m269.81 312.22c0-3.8-5.19-6.88-11.59-6.88s-11.59 3.08-11.59 6.88a4.88 4.88 0 0 0 1.52 3.39c1.93 2 3.81 4.06 5.61 6.19a5.67 5.67 0 0 0 8.92 0c1.79-2.13 3.68-4.18 5.61-6.19a4.92 4.92 0 0 0 1.52-3.39z" fill="#663612"/><path d="m269.81 312.22a4.2 4.2 0 0 1 -.19 1.22c-1-3.22-5.7-5.66-11.4-5.66s-10.44 2.44-11.4 5.66a3.89 3.89 0 0 1 -.19-1.22c0-3.8 5.19-6.88 11.59-6.88s11.59 3.08 11.59 6.88z" fill="#753c15"/><path d="m252.45 387.73c-61.8 0-127.66-53.57-132.59-53.57 0 0 39.44 57.57 132.59 57.57s132.6-57.57 132.6-57.57c-4.93 0-70.8 53.57-132.6 53.57z" fill="#f7ccb0"/><path d="m295.67 373.15a25.16 25.16 0 0 1 -3.12 1.19 19 19 0 0 1 -11.53 0c-5-1.38-10.53-3.9-19.83-4.69 0 0-15-1.56-27.15 1.22a29.13 29.13 0 0 0 -9.92 4 24.06 24.06 0 0 1 -2.32 1.39c-14.21 7.4-14.86-15.23 2.76-30.86 7.73-6.87 19-12.39 34.18-13.42 21.34-1.47 33.52 4.37 39.58 12.11 8.58 10.91 4.84 25.73-2.65 29.06z" fill="#663612"/><path d="m281 374.32c-5-1.38-10.53-3.9-19.83-4.69 0 0-15-1.56-27.15 1.22 4.6-10.57 11.33-18.51 20.64-19.2 13.34-.99 21.68 9.35 26.34 22.67z" fill="#dd686e"/></svg>