<svg id="Layer_1" height="512" viewBox="0 0 512 512" width="512" xmlns="http://www.w3.org/2000/svg" data-name="Layer 1"><path d="m334 485.92c8.6-19.17 13.59-42 13.59-66.48 0-23.95-4.76-46.31-13.05-65.23a127.45 127.45 0 0 0 -10.65-19.69 102.51 102.51 0 0 0 -15.3-18.22 79.64 79.64 0 0 0 -16.44-12 68.66 68.66 0 0 0 -6.72-3.2 61.59 61.59 0 0 0 -23.58-4.71 62.79 62.79 0 0 0 -28.65 7 77.67 77.67 0 0 0 -16.37 11.28 102.48 102.48 0 0 0 -19 22.92 128.19 128.19 0 0 0 -10 19.65 164.39 164.39 0 0 0 -11.75 62.12c0 24.49 5 47.31 13.59 66.48h144.33z" fill="#f88f1c"/><path d="m80.08 433.34c-2.26 6.22 5.66 19.12 16.24 23.48.12.05.68.25.81.32 10.57 5.67 24.62 1.93 27-4.17 17.7-45.51 40.45-77.24 91.24-98.41-5.43-12.82-10.37-25.56-15.37-38.56-66.92 20.37-99.55 61.46-119.92 117.34z" fill="#ed7e11"/><path d="m176.28 340c8.55-4.89 19.72-6.47 29.17-10.3-.13.2-.19-.2-.22-.28-1.49-3.42-3.89-9.68-4.9-12.32-.7-1.84.06.09-.25-.74a2.16 2.16 0 0 1 -.08-.36c-66.95 20.13-99.32 61.73-120 117-1.66 4.44 2.58 13.44 7.91 18.33 14.27-45.61 43.14-85.47 88.37-111.33z" fill="#ffa143"/><path d="m438.9 429.08c2.27 6.22-5.66 19.12-16.23 23.48-.13.05-.69.25-.81.32-10.57 5.67-24.63 1.93-27-4.17-17.69-45.51-40.45-77.24-91.24-98.41 5.38-12.82 10.38-25.57 15.38-38.52 66.9 20.33 99.54 61.42 119.9 117.3z" fill="#f88f1c"/><path d="m342.7 335.71c-8.54-4.89-19.72-6.47-29.17-10.3.14.2.19-.2.23-.28 1.49-3.42 3.89-9.68 4.89-12.32.7-1.84 0 .09.26-.74s-.1.25.11-.29c66.94 20.13 99.31 61.73 120 117.05 1.66 4.44-2.58 13.44-7.91 18.33-14.3-45.7-43.18-85.56-88.41-111.45z" fill="#ffa143"/><path d="m242 432.43c0-76.23 19.86-136 19.86-136a62.76 62.76 0 0 0 -28.65 7 78 78 0 0 0 -16.38 11.28 102.45 102.45 0 0 0 -19 22.92 127.33 127.33 0 0 0 -10 19.65 164.58 164.58 0 0 0 -11.75 62.12c0 24.49 5 47.31 13.59 66.48h56a365.69 365.69 0 0 1 -3.67-53.45z" fill="#ed7e11"/><path d="m290.52 485.92c16.11-13.95 26.89-39.29 26.89-68.26a106.62 106.62 0 0 0 -7.93-41.05q-6.33-15-11.42-30.53t-9.06-31.49a61.14 61.14 0 0 0 -6-2.87l-.14-.06-.78-.31-.81-.31c-.68-.26-1.38-.5-2.08-.73-.53-.18-1.06-.34-1.6-.5a.33.33 0 0 0 -.13 0l-1.47-.42h-.17c-.55-.15-1.1-.28-1.66-.41s-1.14-.26-1.72-.36-1-.2-1.49-.28c-.18 0-.36-.07-.56-.09l-.91-.14-.76-.1-1.39-.16h-.55l-1.31-.1h-.05c-.59-.05-1.16-.07-1.75-.09s-1.19 0-1.79 0a56.24 56.24 0 0 0 -25.65 6.3c-3.15 11.41-6.75 22.7-10.71 33.86q-5.19 14.64-11.24 28.95a106.58 106.58 0 0 0 -7.93 41.05c0 29 10.76 54.31 26.87 68.26h57.32z" fill="#fed9be"/><ellipse cx="259.06" cy="319.37" opacity=".11" rx="75.48" ry="26.02"/><path d="m430 6s-4.33 142.14-58.25 150.08l-7.75-11.08-55-77.8s11.82-17.64 57-25.58c44.41-7.82 63.44-34.76 64-35.62z" fill="#fb8b00"/><path d="m326.23 78.25s7.53-8.2 31.55-8.72 36-13.36 36-13.36-13.55 73.29-42.12 73.12z" fill="#fed9be"/><path d="m430 6s-4.33 142.14-58.25 150.08l-7.75-11.08s11.79 2.23 33-33.47 32.62-103.85 33-105.53z" fill="#ee7900"/><path d="m81.87 6s4.33 142.14 58.25 150.08l7.81-11.08 55-77.83s-11.81-17.64-57-25.58c-44.43-7.79-63.46-34.73-64.05-35.59z" fill="#fb8b00"/><path d="m185.68 78.25s-7.53-8.2-31.55-8.72-36-13.36-36-13.36 13.55 73.29 42.12 73.12z" fill="#fed9be"/><path d="m81.87 6s4.33 142.14 58.25 150.08l7.81-11.08s-11.79 2.23-33-33.47-32.64-103.85-33.05-105.53z" fill="#ee7900"/><path d="m430 258.82s-53.55 74.69-175.24 74.69-175.19-74.69-175.19-74.69c11.32 0 21.63-5.57 30.37-13.07 10-8.6 15.59-19.82 19.18-32.54a215.75 215.75 0 0 0 5.29-27.21c8.73-60.77 35-129.87 120.39-129.87q3.6 0 7.06.15c82.43 3.62 112 70.61 120.49 129.72 1.34 9.41 1.73 18.51 2.73 26.92 1.51 12.83 4.5 24.13 14.59 32.79 8.74 7.54 19.05 13.11 30.33 13.11z" fill="#ed7e11"/><path d="m261.86 56.32s-7.05 49.81-7.05 128.85 10.06 111 7.05 149c-133.66 0-182.29-75.32-182.29-75.32 11.32 0 21.63-5.57 30.37-13.07 10-8.6 15.59-19.82 19.18-32.54a215.75 215.75 0 0 0 5.29-27.24c8.73-60.77 35-129.87 120.39-129.87q3.6.04 7.06.19z" fill="#ed7e11"/><path d="m282.51 284.06c-5.3-91.95 36.84-150.95 68.63-182-18.76-25.51-47.09-44-89.28-45.82-2.32-.1-4.67-.15-7.07-.15-43.84 0-72.09 18.21-90.38 44.16 32 30.49 86.06 90 80.65 183.77-1.53 26.49-19.38 40.79-30.95 46.46a276.89 276.89 0 0 0 40.68 3 273.73 273.73 0 0 0 46.71-3.91c-10.56-6.26-17.5-20.42-18.99-45.51z" fill="#fc9229"/><path d="m430 258.82s-52.11 76.08-175.2 76.08-175.23-76.08-175.23-76.08c11.32 0 21.63-5.57 30.37-13.07 10-8.6 15.59-19.82 19.18-32.54 19.13 1.39 44.68-14.76 66.07 9 33.13 36.79 68.81 6.89 68.81 6.89s34.13 29.76 61.4-8.88c19.95-28.28 40.18-6.67 59.67-7.26 1.51 12.83 4.5 24.13 14.59 32.79 8.75 7.5 19.06 13.07 30.34 13.07z" fill="#fed9be"/><path d="m272.48 173.06c0-27.31 22.16-36.63 49.46-36.63s49.46 9.32 49.46 36.63a49.46 49.46 0 0 1 -98.92 0z" fill="#fff"/><path d="m371.45 178.31a49.51 49.51 0 0 1 -99 0 46.3 46.3 0 0 1 .23-4.74 49.5 49.5 0 0 0 98.56 0 46.3 46.3 0 0 1 .21 4.74z" fill="#f2f2f2"/><path d="m320.48 206.85a7.06 7.06 0 1 0 -5.79 5.74 7.06 7.06 0 0 0 5.79-5.74z" fill="#4d2116"/><path d="m373 168.87a48.89 48.89 0 0 1 -.86 9.2h-100.35a48.89 48.89 0 0 1 -.85-9.2c0-27.31 25.51-39.31 52.82-39.31s49.24 12 49.24 39.31z" fill="#fc9229"/><path d="m147.58 173.06c0-27.31 22.16-36.63 49.47-36.63s49.45 9.32 49.45 36.63a49.46 49.46 0 0 1 -98.92 0z" fill="#fff"/><path d="m246.55 178.31a49.51 49.51 0 0 1 -99 0 46.28 46.28 0 0 1 .24-4.74 49.5 49.5 0 0 0 98.55 0 46.3 46.3 0 0 1 .21 4.74z" fill="#f2f2f2"/><path d="m210.6 210.83c5.81-7.58-2.77-16.17-10.33-10.37-5.7 7.54 2.73 16.04 10.33 10.37z" fill="#4d2116"/><path d="m248.07 168.87a48.89 48.89 0 0 1 -.86 9.2h-100.29a48.89 48.89 0 0 1 -.86-9.2c0-27.31 25.52-39.31 52.82-39.31s49.19 12 49.19 39.31z" fill="#fc9229"/><path d="m341.31 124.87s-46.59-11.51-49.65-16.17 8.83-18.25 18.34-15.64 34.73 18.46 34.63 25.32-3.32 6.49-3.32 6.49z" fill="#663612"/><path d="m343.35 123.72c0-.25 0-.53 0-.82.11-6.86-25.15-22.72-34.63-25.32-6.68-1.83-14.53 4.33-17.56 9.77-.61-5.48 10.11-16.68 18.8-14.29 9.48 2.6 34.73 18.47 34.63 25.32 0 2.85-.59 4.44-1.24 5.34z" fill="#753c15"/><path d="m164.74 133.7s43.89-19.41 46.1-24.53-11.84-16.44-20.76-12.23-31 24.2-29.73 30.94 4.39 5.82 4.39 5.82z" fill="#663612"/><path d="m162.53 132.92c-.06-.25-.12-.52-.17-.8-1.29-6.75 20.83-26.74 29.72-30.95 6.26-3 15.06 1.75 19 6.59-.34-5.51-12.84-14.68-21-10.82-8.9 4.21-31 24.21-29.73 30.94.53 2.8 1.37 4.27 2.18 5.04z" fill="#753c15"/><path d="m277.74 229.82c0-5-6.86-9.08-15.32-9.08s-15.31 4.06-15.31 9.08a6.51 6.51 0 0 0 2 4.49c2.56 2.65 5 5.36 7.42 8.18a7.51 7.51 0 0 0 11.79 0c2.37-2.82 4.86-5.53 7.42-8.18a6.51 6.51 0 0 0 2-4.49z" fill="#663612"/><path d="m277.74 229.82a5.11 5.11 0 0 1 -.25 1.61c-1.28-4.25-7.54-7.47-15.06-7.47s-13.8 3.22-15.07 7.47a5.11 5.11 0 0 1 -.25-1.61c0-5 6.86-9.09 15.32-9.09s15.31 4.07 15.31 9.09z" fill="#753c15"/><path d="m254.8 329.62c-81.68 0-168.71-70.8-175.23-70.8 0 0 52.13 76.08 175.23 76.08s175.2-76.08 175.2-76.08c-6.48 0-93.53 70.8-175.2 70.8z" fill="#f7ccb0"/><path d="m256 450.4s-58.71-50.32-139.6-50.32l-66.31 40 205.91 39.48z" fill="#eef6fa"/><path d="m256 450.4s58.71-50.32 139.6-50.32l66.32 40-205.92 39.48z" fill="#eef6fa"/><path d="m260.78 472.51s62.08-41.86 200.34-32.45v51.26h-198.46z" fill="#d1cecd"/><path d="m250.43 472.51s-62.08-41.86-200.34-32.45v51.26h198.46z" fill="#d1cecd"/><path d="m41.79 500.79h428.42a7.48 7.48 0 0 0 7.47-7.47 7.48 7.48 0 0 0 -7.47-7.48h-428.42a7.48 7.48 0 0 0 -7.47 7.48 7.48 7.48 0 0 0 7.47 7.47z" fill="#35221d"/><path d="m256 457.08c10.43 0 18.88 14.94 18.88 25.37v4.67a18.88 18.88 0 0 1 -18.88 18.88 18.88 18.88 0 0 1 -18.88-18.88v-4.67c-.02-10.45 8.44-25.37 18.88-25.37z" fill="#35221d"/><path d="m215 471.75s-77.14-25.18-129.44-14.67c-.02 0 46.49-3.08 129.44 14.67z" fill="#9e9e9e"/><path d="m314.92 471.75s77.14-25.18 129.44-14.67c0 0-46.51-3.08-129.44 14.67z" fill="#9e9e9e"/><path d="m271.64 287.49c-4.79 4.2-12.15 5.76-19.38-2.32a1.74 1.74 0 0 1 1.35-2.91 58.52 58.52 0 0 0 14.39-1.85 4.12 4.12 0 0 1 3.64 7.08z" fill="#663612"/><circle cx="326.19" cy="173.92" fill="#c0e5eb" opacity=".21" r="57.74" transform="matrix(.707 -.707 .707 .707 -27.44 281.59)"/><circle cx="194.92" cy="178.62" fill="#c0e5eb" opacity=".21" r="57.73" transform="matrix(.924 -.383 .383 .924 -53.52 88.19)"/><g fill="#65a8dd"><path d="m326.19 237.91a61.82 61.82 0 1 1 61.81-61.82 61.89 61.89 0 0 1 -61.81 61.82zm0-115.47a53.65 53.65 0 1 0 53.65 53.65 53.71 53.71 0 0 0 -53.65-53.65z"/><path d="m194.92 240.44a61.82 61.82 0 1 1 61.82-61.82 61.89 61.89 0 0 1 -61.82 61.82zm0-115.47a53.65 53.65 0 1 0 53.65 53.65 53.71 53.71 0 0 0 -53.65-53.62z"/><path d="m251.11 173h16.62v6.18h-16.62z"/></g></svg>