<svg height="512" viewBox="0 0 512 512" width="512" xmlns="http://www.w3.org/2000/svg"><g isolation="isolate"><g id="Layer_1" data-name="Layer 1"><path d="m313.15 470.16s-56.16-27.79-120.59 0l5.77-166.61h105z" fill="#5b1a5b"/><path d="m52.49 252.46h20.57v44.27h-20.57z" fill="#119e68" transform="matrix(-.191 .982 -.982 -.191 344.32 265.54)"/><path d="m55.26 256.05h15.04v37.09h-15.04z" fill="#a2cf7b" transform="matrix(-.191 .982 -.982 -.191 344.32 265.54)"/><path d="m61.91 279a4.5 4.5 0 1 0 -3.55-5.28 4.51 4.51 0 0 0 3.55 5.28z" fill="#119e68"/><path d="m52.98 239.45h23.7v51.02h-23.7z" fill="#119e68" transform="matrix(-.41 .91 -.91 -.41 333.26 313.47)"/><path d="m56.17 243.59h17.33v42.75h-17.33z" fill="#a2cf7b" transform="matrix(-.407 .914 -.914 -.407 333.26 313.48)"/><path d="m62.72 269.7a5.19 5.19 0 1 0 -2.63-6.85 5.19 5.19 0 0 0 2.63 6.85z" fill="#119e68"/><path d="m54.5 229.9h25.97v55.91h-25.97z" fill="#119e68" transform="matrix(-.56 .828 -.828 -.56 318.86 346.47)"/><path d="m57.99 234.43h18.99v46.84h-18.99z" fill="#a2cf7b" transform="matrix(-.56 .83 -.83 -.56 318.86 346.47)"/><path d="m64.3 262.56a5.69 5.69 0 1 0 -1.52-7.9 5.69 5.69 0 0 0 1.52 7.9z" fill="#119e68"/><path d="m88.41 219.11h20.57v44.27h-20.57z" fill="#119e68" transform="matrix(.995 -.1 .1 .995 -23.62 11.07)"/><path d="m91.17 222.7h15.04v37.09h-15.04z" fill="#a2cf7b" transform="matrix(.995 -.1 .1 .995 -23.62 11.07)"/><path d="m103.17 240.8a4.5 4.5 0 1 1 -4.93-4 4.51 4.51 0 0 1 4.93 4z" fill="#119e68"/><path d="m77.05 216.89h23.7v51.02h-23.7z" fill="#119e68" transform="matrix(.947 -.321 .321 .947 -73.02 41.29)"/><path d="m80.23 221.03h17.33v42.75h-17.33z" fill="#a2cf7b" transform="matrix(.947 -.321 .321 .947 -73.02 41.29)"/><path d="m93.81 240.74a5.19 5.19 0 1 1 -6.58-3.25 5.18 5.18 0 0 1 6.58 3.25z" fill="#119e68"/><path d="m68.59 216.44h25.97v55.91h-25.97z" fill="#119e68" transform="matrix(.876 -.482 .482 .876 -107.62 69.5)"/><path d="m72.08 220.97h18.99v46.84h-18.99z" fill="#a2cf7b" transform="matrix(.876 -.482 .482 .876 -107.62 69.5)"/><path d="m86.56 241.65a5.69 5.69 0 1 1 -7.72-2.24 5.68 5.68 0 0 1 7.72 2.24z" fill="#119e68"/><path d="m59.49 222.12h26.99v58.1h-26.99z" fill="#119e68" transform="matrix(-.692 .722 -.722 -.692 304.74 372.43)"/><path d="m63.12 226.83h19.74v48.68h-19.74z" fill="#a2cf7b" transform="matrix(-.692 .722 -.722 -.692 304.74 372.43)"/><circle cx="72.98" cy="251.17" fill="#119e68" r="5.91" transform="matrix(.569 -.822 .822 .569 -175.07 168.2)"/><path d="m404.11 428.64-15.11 8.88a1.19 1.19 0 0 1 -1.38-.11c-16.94-14-14.36-35.69-13.81-41.47a1.21 1.21 0 0 1 1.44-1.07l11 2.3 6.56 1.37a1.22 1.22 0 0 1 1 1.19c0 17.5 7.13 24.55 10.45 26.89a1.2 1.2 0 0 1 -.15 2.02z" fill="#a2cf7b"/><path d="m388.38 438.72a2.21 2.21 0 0 1 -1.42-.51 39.69 39.69 0 0 1 -13.71-23.83 62.51 62.51 0 0 1 -.52-18.07v-.46a2.24 2.24 0 0 1 2.68-2l17.59 3.68a2.26 2.26 0 0 1 1.78 2.2c0 17.15 7 23.93 10 26a2.25 2.25 0 0 1 -.16 3.76l-15.11 8.88a2.3 2.3 0 0 1 -1.13.35zm-13.38-42.84a.18.18 0 0 0 -.11 0 .18.18 0 0 0 -.07.12v.47c-.65 6.62-2.6 26.78 13.49 40.11a.18.18 0 0 0 .2 0l15.1-8.88a.18.18 0 0 0 .09-.15.17.17 0 0 0 -.07-.14c-9.84-6.91-10.9-21.69-10.9-27.73a.17.17 0 0 0 -.13-.18l-17.6-3.61z" fill="#119e68"/><path d="m390.73 416.27a4.63 4.63 0 1 1 -4.23-5 4.64 4.64 0 0 1 4.23 5z" fill="#119e68"/><path d="m419.22 107a1.41 1.41 0 0 1 -1.58-1.12c-.05-.32-.13-.68-.23-1.09-.94-4.13-3.62-12.49-10.18-15.37a1.41 1.41 0 0 1 -.07-2.51c7.16-3.91 24.37-14.91 30.64-33.58a45.09 45.09 0 0 0 2.2-17.91 1.41 1.41 0 0 1 2.16-1.3l19.51 12.55a4.51 4.51 0 0 1 2.05 3.62c.34 10.31-1.16 50.61-44.5 56.71z" fill="#a2cf7b"/><path d="m419 108.51a2.93 2.93 0 0 1 -2.87-2.37c-.56-2.87-2.9-12.45-9.52-15.35a2.86 2.86 0 0 1 -1.72-2.52 2.92 2.92 0 0 1 1.53-2.71c8.06-4.38 34.21-21 32.06-50a2.93 2.93 0 0 1 4.52-2.72l19.5 12.56a6 6 0 0 1 2.74 4.85c.16 5-.1 18.13-6 30.62-7.43 15.66-20.82 24.95-39.79 27.62zm-10.93-20.39c7.53 3.46 10.22 13.2 11 17.35 10.62-1.51 44.57-9.93 43.11-55.13a3 3 0 0 0 -1.36-2.4l-19.29-12.43c2.14 30.49-24.8 47.86-33.46 52.61z" fill="#119e68"/><circle cx="437.96" cy="76.27" fill="#119e68" r="6.79"/><path d="m30.38 10.77a1 1 0 0 1 1.09-.77c.21 0 .47.08.75.11 2.85.38 8.82.67 12.21-2.83a1 1 0 0 1 1.62.55c.77 5.49 3.7 19.07 14.09 27.49a30.66 30.66 0 0 0 10.86 5.68 1 1 0 0 1 .31 1.69l-12.59 9.46a3.08 3.08 0 0 1 -2.8.45c-6.64-2.24-31.92-12.78-25.54-41.83z" fill="#a2cf7b"/><path d="m56.89 53.78a4.21 4.21 0 0 1 -1.3-.21 47.3 47.3 0 0 1 -18.08-11.12c-8.21-8.45-10.95-19.19-8.14-31.91a2 2 0 0 1 2.27-1.54c2 .33 8.62 1.12 12-2.42a1.94 1.94 0 0 1 2-.49 2 2 0 0 1 1.36 1.61c.88 6.18 5.23 26.78 24.26 32.32a2 2 0 0 1 .64 3.5l-12.57 9.48a4.08 4.08 0 0 1 -2.44.78zm-25.52-42.72c-1.56 7.12-4.26 30.75 24.88 40.56a2 2 0 0 0 1.85-.3l12.51-9.32c-19.95-5.93-24.61-27.21-25.61-33.85-3.95 3.97-10.79 3.37-13.63 2.91z" fill="#119e68"/><path d="m43.88 34.33a4.61 4.61 0 1 1 5.93-2.71 4.62 4.62 0 0 1 -5.93 2.71z" fill="#119e68"/><path d="m59.23 488.74a1 1 0 0 1 -1.07-.76c0-.22-.09-.47-.16-.74-.64-2.82-2.45-8.5-6.92-10.46a1 1 0 0 1 0-1.7c4.88-2.65 16.58-10.14 20.84-22.82a30.78 30.78 0 0 0 1.5-12.18 1 1 0 0 1 1.47-.88l13.27 8.53a3.06 3.06 0 0 1 1.39 2.46c.17 7.01-.85 34.42-30.32 38.55z" fill="#a2cf7b"/><path d="m59.1 489.78a2 2 0 0 1 -2-1.61c-.38-1.95-2-8.47-6.48-10.44a2 2 0 0 1 -1.12-1.73 2 2 0 0 1 1-1.84c5.49-3 23.27-14.25 21.8-34a2 2 0 0 1 3.06-1.83l13.26 8.54a4.07 4.07 0 0 1 1.87 3.29 47.33 47.33 0 0 1 -4.06 20.84c-5.05 10.64-14.15 17-27.05 18.77zm-7.44-13.87c5.11 2.36 6.94 9 7.5 11.8 7.22-1 30.3-6.75 29.31-37.48a2 2 0 0 0 -.92-1.63l-13.14-8.46c1.45 20.76-16.87 32.55-22.75 35.77z" fill="#119e68"/><circle cx="71.98" cy="467.86" fill="#119e68" r="4.61"/><path d="m431.34 286.19c-39.95 26.81-97.78 37.81-151.19 19.27 1.85-6.95 3.67-13.84 5.41-20.78q1.49-5.83 2.86-11.75c43.29 10.36 90.21.77 123.47-20.55 2.77-1.78 8.06-.81 12.66 2.28a20.13 20.13 0 0 1 7 7.86c.05.1.31.5.38.59 4.82 7.89 3.85 20.1-.59 23.08z" fill="#f88f1c"/><path d="m284.36 279.25s0 0 0 .05a.3.3 0 0 1 0-.11.35.35 0 0 0 0 .06z" fill="#ffa143"/><path d="m284.29 279.46s0 .01 0 0z" fill="#ffa143"/><path d="m424.55 254.66a29.56 29.56 0 0 1 -6 5.59c-34.07 24.93-88 35.22-132.95 24.43q1.49-5.83 2.86-11.75c43.29 10.36 90.21.77 123.47-20.55 2.73-1.78 8.07-.81 12.62 2.28z" fill="#ffa143"/><path d="m213.63 309.59c-45.71 15.07-82 8.64-116.18-10.55q-9-5-17.77-11.18c-3.37-2.35-4.61-10.11-2.75-17.12a21 21 0 0 1 2.55-6c.06-.09.34-.49.38-.59a20.17 20.17 0 0 1 7.1-7.75c4.66-3 10-3.89 12.7-2.07 32.91 21.85 62.75 32.23 106.21 22.56q1.27 6 2.66 11.8c1.64 6.99 3.35 13.92 5.1 20.9z" fill="#ed7e11"/><path d="m226.76 283.27a.09.09 0 0 0 0 .05.71.71 0 0 0 0-.12s0 .04 0 .07z" fill="#ffa143"/><path d="" fill="#ffa143"/><path d="m87 256.44a29.7 29.7 0 0 0 6 5.68c33.67 25.47 70.49 36.67 115.61 26.6q-1.38-5.85-2.66-11.8c-43.46 9.67-73.3-.71-106.21-22.56-2.81-1.82-8.11-.94-12.74 2.08z" fill="#ffa143"/><g opacity=".21"><ellipse cx="250.69" cy="493.04" fill="#3f3f44" rx="61.07" ry="12.96"/></g><path d="m246.4 452v4.77c-.16 30.6 1.37 37.86-15.9 43.39-15.69 5-16.86-4.2-16.86-4.2s-2.44 1.3-5-1.61c-6.65-7.39 11.76-11.74 11.76-11.74l-12-36.53-3.1-9.45s41.51-19.37 41.1 15.37z" fill="#ed7e11"/><path d="m296.93 494.45c-2.61 2.9-5 1.6-5 1.6s-1.17 9.22-16.86 4.2c-17.27-5.52-15.74-12.79-15.9-43.39 0-1.53 0-3.11 0-4.76-.4-34.74 41.18-15.37 41.18-15.37l-3 9.28-12.17 36.69s18.41 4.36 11.75 11.75z" fill="#f88f1c"/><path d="m322.32 364.38c0 55-31.05 99.52-69.36 99.52h-1.44c-37.64-1.09-67.92-45.22-67.92-99.49a133 133 0 0 1 9.5-50.26 103.39 103.39 0 0 1 8.06-15.9 82.74 82.74 0 0 1 15.37-18.54 62.7 62.7 0 0 1 13.25-9.13 50.78 50.78 0 0 1 23.18-5.7 49.94 49.94 0 0 1 19.04 3.79 53.8 53.8 0 0 1 5.43 2.59 64.56 64.56 0 0 1 13.3 9.67 82.59 82.59 0 0 1 12.38 14.75 102 102 0 0 1 8.61 15.92 132.1 132.1 0 0 1 10.6 52.78z" fill="#f88f1c"/><path d="m253 463.9h-1.44c-37.64-1.09-67.93-45.22-67.93-99.49a133 133 0 0 1 9.51-50.26 104.26 104.26 0 0 1 8-15.9 83 83 0 0 1 15.38-18.54 62.7 62.7 0 0 1 13.25-9.13 50.78 50.78 0 0 1 23.18-5.7s-16.07 48.36-16.07 110 16.12 89.02 16.12 89.02z" fill="#ed7e11"/><path d="m297.9 362.94c0 35.6-20.13 64.45-44.94 64.45a32.07 32.07 0 0 1 -9-1.29c-20.5-6-35.92-32-35.92-63.16a86.18 86.18 0 0 1 6.42-33.21q4.88-11.6 9.09-23.43c3.2-9 6.12-18.16 8.66-27.39a45.53 45.53 0 0 1 20.76-5.1h1.45s.94 0 1.41.07l1.06.08h.45l1.12.13.62.08.73.11.46.08c.4.06.8.14 1.2.22s.94.19 1.4.3.89.21 1.33.33h.14c.4.1.8.22 1.19.34h.11l1.29.4q.85.29 1.68.6l.66.25.63.25.11.05a47 47 0 0 1 4.87 2.32q3.19 12.85 7.34 25.48t9.23 24.7a86.18 86.18 0 0 1 6.45 33.34z" fill="#fed9be"/><path d="m107.34 29.89s3.5 115 47.13 121.42l6.31-8.94s-9.53 1.8-26.72-27.08-26.38-84-26.71-85.38z" fill="#ee7900"/><path d="m247.24 291.71c-66.07 0-136.49-57.28-141.76-57.28 0 0 42.17 61.55 141.76 61.55s141.76-61.55 141.76-61.55c-5.26 0-75.68 57.28-141.76 57.28z" fill="#f7ccb0"/><path d="m415.57 215.7h20.57v44.27h-20.57z" fill="#119e68" transform="matrix(-.943 -.334 .334 -.943 747.97 604.11)"/><path d="m418.34 219.29h15.04v37.09h-15.04z" fill="#a2cf7b" transform="matrix(-.94 -.33 .33 -.94 747.97 604.11)"/><path d="m421.61 236.33a4.5 4.5 0 1 0 5.75-2.74 4.51 4.51 0 0 0 -5.75 2.74z" fill="#119e68"/><path d="m423.24 215.78h23.7v51.02h-23.7z" fill="#119e68" transform="matrix(-.844 -.537 .537 -.844 672.79 678.35)"/><path d="m426.42 219.92h17.33v42.75h-17.33z" fill="#a2cf7b" transform="matrix(-.844 -.537 .537 -.844 672.79 678.35)"/><path d="m430.71 238.51a5.19 5.19 0 1 0 7.16-1.6 5.19 5.19 0 0 0 -7.16 1.6z" fill="#119e68"/><path d="m428.75 217h25.97v55.91h-25.97z" fill="#119e68" transform="matrix(-.737 -.676 .676 -.737 601.58 724.1)"/><path d="m432.24 221.54h18.99v46.84h-18.99z" fill="#a2cf7b" transform="matrix(-.74 -.68 .68 -.74 601.58 724.1)"/><circle cx="441.73" cy="244.96" fill="#119e68" r="5.69" transform="matrix(.591 -.807 .807 .591 -16.93 456.52)"/><path d="m443.29 256.12h20.57v44.27h-20.57z" fill="#119e68" transform="matrix(-.047 .999 -.999 -.047 753.01 -161.61)"/><path d="m446.05 259.71h15.04v37.09h-15.04z" fill="#a2cf7b" transform="matrix(-.05 1 -1 -.05 753.01 -161.61)"/><path d="m453.36 282.76a4.5 4.5 0 1 1 4.71-4.28 4.5 4.5 0 0 1 -4.71 4.28z" fill="#119e68"/><path d="m442.01 242.9h23.7v51.02h-23.7z" fill="#119e68" transform="matrix(.178 .984 -.984 .178 637.27 -225.96)"/><path d="m445.2 247.03h17.33v42.75h-17.33z" fill="#a2cf7b" transform="matrix(.178 .984 -.984 .178 637.27 -225.96)"/><path d="m454.78 273.51a5.19 5.19 0 1 1 4.19-6 5.17 5.17 0 0 1 -4.19 6z" fill="#119e68"/><path d="m439.99 232.92h25.97v55.91h-25.97z" fill="#119e68" transform="matrix(.348 .938 -.938 .348 540.16 -254.53)"/><path d="m443.48 237.45h18.99v46.84h-18.99z" fill="#a2cf7b" transform="matrix(.348 .938 -.938 .348 540.16 -254.53)"/><path d="m455 266.2a5.68 5.68 0 1 1 3.36-7.3 5.7 5.7 0 0 1 -3.36 7.3z" fill="#119e68"/><path d="m434.04 222.33h26.99v58.1h-26.99z" fill="#119e68" transform="matrix(-.612 -.791 .791 -.612 522.53 759.17)"/><path d="m437.66 227.04h19.74v48.68h-19.74z" fill="#a2cf7b" transform="matrix(-.612 -.791 .791 -.612 522.53 759.17)"/><circle cx="447.53" cy="251.38" fill="#119e68" r="5.91"/><path d="m277.58 299.92s.06.09.11.19z" fill="#c32720"/><path d="m294.25 342.66c.32 1.13.62 2.29.92 3.48-.3-1.14-.6-2.35-.92-3.48z" fill="#c32720"/><path d="m319.33 478.72c4.37-57.54-9.64-138.11-21.06-166.17a119.84 119.84 0 0 0 -9.17-18.69l15.55-8.15c34.42 25.74 31.52 159.58 30.4 183.22a7.92 7.92 0 0 1 -5.06 7 53.62 53.62 0 0 1 -10.66 2.79" fill="#90278e"/><path d="m319.33 478.72a76.23 76.23 0 0 1 -15.55.89c.64-9.54.91-18.66.86-27.35 0-.47 0-.94 0-1.4q0-4.47-.19-8.77c0-.52 0-1-.05-1.54-.11-2.8-.25-34.69-.42-37.38 0-.58-.07-1.16-.11-1.74-.11-1.72-.24-3.42-.38-5.1l-.15-1.68c-.14-1.66-.3-3.32-.47-4.94-.05-.54-.11-1.08-.17-1.62s-.11-1.07-.17-1.6c-.12-1.08-.25-2.13-.38-3.17-.64-5.24-1.39-10.23-2.21-15-.08-.48-.17-.95-.25-1.42-.34-1.89-.69-3.73-1-5.54-.09-.45-.19-.9-.28-1.35-.06-.29-.11-.58-.17-.86l-.3-1.45q-1.31-6.1-2.72-11.57c-.3-1.19-.6-2.35-.92-3.48q-.67-2.52-1.38-4.9c-.13-.45-.26-.9-.4-1.35-.56-1.86-1.12-3.66-1.68-5.38l-.33-1c-.74-2.24-1.48-4.36-2.2-6.35q-.15-.42-.3-.81-1.12-3.06-2.21-5.73c-1.05-2.63-2.06-5-3-7-.17-.36-.32-.71-.48-1.06-1.24-2.68-2.31-4.79-3.11-6.3l-.23-.41c-.37-.71-.68-1.25-.91-1.65-.06-.11-.11-.21-.16-.29l-.13-.22-.06-.09c-.05-.1-.1-.17-.11-.19l11.53-6.05a119.84 119.84 0 0 1 9.17 18.69c11.38 28.05 25.39 108.62 21.02 166.16z" fill="#fdc84c"/><path d="m277.57 299.9 11.53-6-11.53 6.05z" fill="#fbeadf"/><g mix-blend-mode="multiply"><path d="m298.27 312.55a38 38 0 0 1 -12.51 4.58 124.67 124.67 0 0 0 -8.19-17.23l11.54-6a121.13 121.13 0 0 1 9.16 18.65z" fill="#fbeadf"/></g><path d="m259.18 290.57s19.46 26.55 37.5 15.92 17.56-24.7 17.56-24.7l-19.63-17.62z" fill="#fdc84c"/><g fill="#c32720"><path d="m209.84 349.75c.3-1.23.6-2.43.9-3.61-.3 1.19-.6 2.39-.9 3.61z"/><path d="m212 341.53c.41-1.5.82-3 1.25-4.38-.44 1.42-.86 2.85-1.25 4.38z"/><path d="m213.86 335.05q1.11-3.63 2.22-6.88-1.08 3.27-2.22 6.88z"/><path d="m216.08 328.17c.73-2.17 1.47-4.22 2.19-6.14q-1.08 2.88-2.19 6.14z"/></g><path d="m186.59 478.73a53.62 53.62 0 0 1 -10.66-2.79 7.92 7.92 0 0 1 -5.06-7c-1.12-23.64-4-157.48 30.4-183.22l15.54 8.15c-2.52 3.87-5.95 10.67-9.62 19.81-11.33 28.3-24.91 108.27-20.6 165.05" fill="#90278e"/><path d="m220 317.49.36-.88c-.48 1.2-1 2.46-1.49 3.79.39-1.01.77-1.98 1.13-2.91z" fill="#c32720"/><path d="m227.7 301c.1-.19.2-.36.28-.49z" fill="#c32720"/><path d="m228.34 299.92s-.05.09-.11.19a1 1 0 0 1 .11-.19z" fill="#c32720"/><path d="m228.35 299.91a1 1 0 0 0 -.11.19c-.07.1-.15.24-.25.42s-.18.3-.28.49c-.33.58-.77 1.38-1.3 2.41q-.18.33-.36.69c-.07.12-.13.25-.19.38l-.4.79c-.65 1.29-1.38 2.81-2.17 4.56l-.38.83-.39.87c-.13.3-.26.61-.4.91a.76.76 0 0 1 0 .11l-.36.83c-.34.8-.7 1.63-1.05 2.5l-.29.71-.36.88c-.37.93-.75 1.9-1.13 2.91-.21.53-.41 1.07-.61 1.63-.72 1.92-1.46 4-2.19 6.14s-1.48 4.46-2.22 6.88l-.63 2.1c-.43 1.42-.84 2.88-1.25 4.38-.11.37-.21.75-.32 1.13-.2.76-.41 1.52-.61 2.31-.11.38-.21.78-.31 1.17-.3 1.18-.6 2.38-.9 3.61-.25 1.05-.5 2.1-.75 3.18s-.47 2.07-.7 3.13c-.1.43-.19.87-.28 1.3s-.19.88-.28 1.33-.19.89-.27 1.33c-.19.9-.37 1.8-.54 2.71-.09.46-.18.92-.26 1.38-.15.76-.29 1.53-.43 2.31-.71 3.92-1.37 8-2 12.26-.07.5-.14 1-.2 1.53-.21 1.54-.41 3.1-.59 4.68-.05.37-.09.72-.14 1.09-.89 7.83-1.55 45.32-1.9 54.16l-.06 1.59v1.26.76c0 1.09-.06 2.2-.09 3.3 0 1.28 0 2.57-.05 3.87v1.34c-.05 8.69.22 17.81.86 27.35a76.23 76.23 0 0 1 -15.55-.89c-4.31-56.78 9.27-136.75 20.6-165 3.67-9.14 7.1-15.94 9.62-19.81z" fill="#fdc84c"/><path d="m228.35 299.9-11.54-6.05z" fill="#fbeadf"/><g mix-blend-mode="multiply"><path d="m228.35 299.9a127.43 127.43 0 0 0 -8.35 17.59 39.23 39.23 0 0 1 -12.82-3.82c3.67-9.15 7.11-15.94 9.62-19.82z" fill="#fbeadf"/></g><path d="m246.74 291.11s-19.46 26-37.5 15.38-17.56-24.7-17.56-24.7l19.63-17.62z" fill="#fdc84c"/><ellipse cx="250.69" cy="283.42" opacity=".11" rx="61.07" ry="21.05"/><path d="m389 29.89s-3.5 115-47.13 121.42l-6.31-8.94-44.48-63s9.56-14.28 46.09-20.7c35.95-6.33 51.35-28.12 51.82-28.8z" fill="#fb8b00"/><path d="m305 88.34s6.09-6.63 25.53-7.06 29.14-10.8 29.14-10.8-11 59.3-34.07 59.15z" fill="#fed9be"/><path d="m389 29.89s-3.5 115-47.13 121.42l-6.31-8.94s9.53 1.8 26.72-27.08 26.38-84 26.71-85.38z" fill="#ee7900"/><path d="m107.34 29.89s3.5 115 47.13 121.42l6.31-8.94 44.48-63s-9.56-14.28-46.09-20.7c-35.95-6.33-51.35-28.12-51.82-28.8z" fill="#fb8b00"/><path d="m191.33 88.34s-6.09-6.63-25.53-7.06-29.14-10.8-29.14-10.8 11 59.3 34.07 59.15z" fill="#fed9be"/><path d="m389 234.43s-43.32 60.42-141.78 60.42-141.76-60.42-141.76-60.42c9.16 0 17.5-4.51 24.57-10.57 8.1-7 12.61-16 15.52-26.33a174.29 174.29 0 0 0 4.27-22c7.07-49.17 28.31-105.07 97.4-105.07 1.94 0 3.85 0 5.72.12 66.68 2.93 90.6 57.13 97.47 105 1.09 7.61 1.41 15 2.22 21.78 1.22 10.37 3.64 19.52 11.8 26.53 7.09 6.03 15.43 10.54 24.57 10.54z" fill="#ed7e11"/><path d="m253 70.6s-5.71 40.3-5.71 104.25 8.14 89.79 5.71 120.52c-108.14 0-147.48-60.94-147.48-60.94 9.16 0 17.5-4.51 24.57-10.57 8.1-7 12.61-16 15.52-26.33a174.29 174.29 0 0 0 4.27-22c7.07-49.17 28.31-105.07 97.4-105.07 1.9.02 3.81.06 5.72.14z" fill="#ed7e11"/><path d="m269.66 254.84c-4.29-74.38 29.81-122.12 55.52-147.21-15.18-20.63-38.09-35.56-72.18-37.06-1.88-.08-3.78-.12-5.72-.12-35.47 0-58.32 14.73-73.13 35.72 25.85 24.67 69.59 72.83 65.21 148.67-1.24 21.44-15.68 33-25 37.59a223 223 0 0 0 32.91 2.39 221.28 221.28 0 0 0 37.73-3.16c-8.52-5.06-14.16-16.51-15.34-36.82z" fill="#fc9229"/><path d="m389 234.43s-42.17 61.57-141.76 61.57-141.76-61.55-141.76-61.55c9.16 0 17.5-4.51 24.57-10.57 8.1-7 12.61-16 15.52-26.33 15.47 1.13 36.15-11.94 53.45 7.26 26.8 29.75 55.68 5.59 55.68 5.59s27.61 24.08 49.67-7.18c16.14-22.87 32.51-5.4 48.28-5.87 1.22 10.37 3.64 19.52 11.8 26.53 7.07 6.04 15.41 10.55 24.55 10.55z" fill="#fed9be"/><path d="m261.55 165c0-22.09 17.92-29.63 40-29.63s40 7.54 40 29.63a40 40 0 0 1 -80 0z" fill="#fff"/><path d="m341.62 169.29a40.06 40.06 0 0 1 -80.11 0 37.35 37.35 0 0 1 .19-3.83 40 40 0 0 0 79.73 0 37.35 37.35 0 0 1 .19 3.83z" fill="#f2f2f2"/><path d="m160.5 165c0-22.09 17.93-29.63 40-29.63s40 7.54 40 29.63a40 40 0 0 1 -80 0z" fill="#fff"/><path d="m240.57 169.29a40.06 40.06 0 0 1 -80.11 0 37.35 37.35 0 0 1 .19-3.83 40 40 0 0 0 79.73 0 37.35 37.35 0 0 1 .19 3.83z" fill="#f2f2f2"/><path d="m317.24 126.06s-37.7-9.31-40.17-13.08 7.14-14.76 14.82-12.66 28.1 14.94 28 20.49-2.65 5.25-2.65 5.25z" fill="#663612"/><path d="m318.89 125.13c0-.2 0-.43 0-.66.08-5.56-20.35-18.38-28-20.49-5.4-1.48-11.76 3.5-14.2 7.9-.5-4.43 8.17-13.49 15.2-11.56 7.68 2.11 28.11 14.94 28 20.49a7.41 7.41 0 0 1 -1 4.32z" fill="#753c15"/><path d="m174.38 133.2s35.52-15.7 37.3-19.84-9.6-13.3-16.8-9.9-25.09 19.58-24 25 3.5 4.74 3.5 4.74z" fill="#663612"/><path d="m172.6 132.57a5.7 5.7 0 0 1 -.14-.65c-1.05-5.45 16.85-21.63 24-25 5.05-2.39 12.18 1.41 15.35 5.33-.28-4.46-10.39-11.88-17-8.76-7.19 3.41-25.09 19.59-24 25a7.34 7.34 0 0 0 1.79 4.08z" fill="#753c15"/><path d="m265.8 211c0-4.06-5.55-7.35-12.39-7.35s-12.41 3.26-12.41 7.35a5.23 5.23 0 0 0 1.61 3.63c2.07 2.14 4.09 4.33 6 6.62a6.08 6.08 0 0 0 9.54 0c1.92-2.29 3.93-4.48 6-6.62a5.24 5.24 0 0 0 1.65-3.63z" fill="#663612"/><path d="m265.8 211a4.06 4.06 0 0 1 -.2 1.3c-1-3.44-6.1-6-12.19-6s-11.15 2.6-12.19 6a4.36 4.36 0 0 1 -.2-1.3c0-4.06 5.55-7.35 12.39-7.35s12.39 3.26 12.39 7.35z" fill="#753c15"/><path d="m283.56 171.56a5.71 5.71 0 1 0 -4.68 4.65 5.71 5.71 0 0 0 4.68-4.65z" fill="#4d2116"/><path d="m228.21 171.69a5.71 5.71 0 1 0 -4.69 4.64 5.73 5.73 0 0 0 4.69-4.64z" fill="#4d2116"/><path d="m295.09 245.07-2.89-.3q-1.77-.2-3.72-.45a299.58 299.58 0 0 1 -69.18-17.32c-2.34-.89-4.69-1.84-7.06-2.82q-3-1.24-6-2.59c-1.58-.69-3.13-1.42-4.74-2.18a7.36 7.36 0 0 0 -10.43 7.06 43.67 43.67 0 0 0 1.59 9.67c24 6.94 57.53 20.41 70.16 40.18a54.1 54.1 0 0 0 11.57-2 47.74 47.74 0 0 0 11.73-5 50.31 50.31 0 0 0 14.11-12.56 7.33 7.33 0 0 0 -5.14-11.69z" fill="#663612"/><path d="m192.66 236.16c.26.94.57 1.89.92 2.85a42.22 42.22 0 0 0 6.18 11.55c6.67 8.94 18.21 17.52 37.82 22.84a86.55 86.55 0 0 0 13.81 2.65 68.56 68.56 0 0 0 11.43.29c-12.63-19.77-46.14-33.24-70.16-40.18z" fill="#dd686e"/></g></g></svg>