<svg height="512" viewBox="0 0 512 512" width="512" xmlns="http://www.w3.org/2000/svg"><g isolation="isolate"><g id="Layer_1" data-name="Layer 1"><path d="m415.58 294.1c-36 24.18-88.11 34.1-136.24 17.37 1.67-6.27 3.31-12.48 4.88-18.73.89-3.51 1.75-7 2.57-10.59 39 9.34 81.3.69 111.27-18.52 2.5-1.6 7.26-.73 11.41 2.06a18 18 0 0 1 6.28 7.08c.05.09.29.45.35.53 4.36 7.11 3.48 18.12-.52 20.8z" fill="#f88f1c"/><g fill="#ffa143"><path d="m283.13 287.85a.06.06 0 0 1 0 0c0-.06 0-.09 0-.1a.35.35 0 0 0 0 .1z"/><path d=""/><path d="m409.47 265.69a26.92 26.92 0 0 1 -5.45 5c-30.7 22.46-79.29 31.73-119.8 22 .89-3.51 1.75-7 2.57-10.59 39 9.34 81.3.69 111.27-18.52 2.5-1.58 7.26-.68 11.41 2.11z"/></g><path d="m240.32 315.19c-41.19 13.58-73.91 7.78-104.7-9.51q-8.07-4.53-16-10.08c-3-2.11-4.16-9.11-2.48-15.42a18.62 18.62 0 0 1 2.29-5.38c0-.08.31-.44.35-.53a18.24 18.24 0 0 1 6.39-7c4.2-2.71 9-3.51 11.44-1.87 29.66 19.69 56.56 29 95.72 20.34q1.16 5.36 2.4 10.63c1.47 6.29 3.02 12.53 4.59 18.82z" fill="#ed7e11"/><path d="m252.15 291.47a.3.3 0 0 0 0-.11.35.35 0 0 1 0 .11z" fill="#ffa143"/><path d="m252.21 291.66s0 .01 0 0z" fill="#ffa143"/><path d="m126.18 267.29a26.76 26.76 0 0 0 5.37 5.12c30.34 22.95 63.53 33 104.19 24-.83-3.52-1.64-7.06-2.4-10.63-39.17 8.71-66.06-.65-95.71-20.34-2.47-1.67-7.25-.87-11.45 1.85z" fill="#ffa143"/><path d="m325.94 418.51a131.33 131.33 0 0 0 .41-102.08 97.5 97.5 0 0 0 -8.26-15.27 78.55 78.55 0 0 0 -11.86-14.16 61.31 61.31 0 0 0 -12.74-9.27 51.41 51.41 0 0 0 -5.2-2.48 47.75 47.75 0 0 0 -18.29-3.62 48.77 48.77 0 0 0 -22.21 5.46 60.18 60.18 0 0 0 -12.69 8.75 79.68 79.68 0 0 0 -14.73 17.76 98.74 98.74 0 0 0 -7.72 15.23 131.51 131.51 0 0 0 1.43 99.68z" fill="#f88f1c"/><path d="m254.61 377.05c0-59.05 15.39-105.42 15.39-105.42a48.7 48.7 0 0 0 -22.21 5.46 60.18 60.18 0 0 0 -12.69 8.75 80 80 0 0 0 -14.74 17.76 99.61 99.61 0 0 0 -7.71 15.23 131.51 131.51 0 0 0 1.43 99.68h43.39a283.35 283.35 0 0 1 -2.86-41.46z" fill="#ed7e11"/><path d="m292.22 418.51c12.49-10.81 20.85-30.45 20.85-52.9a82.59 82.59 0 0 0 -6.15-31.82q-4.91-11.66-8.85-23.67t-7-24.41a47.2 47.2 0 0 0 -4.66-2.22l-.11-.05-.6-.24-.7-.2q-.8-.3-1.62-.57l-1.23-.39h-.11c-.37-.12-.76-.23-1.14-.33h-.13c-.42-.12-.85-.22-1.28-.32s-.89-.2-1.34-.28l-1.15-.31-.43-.07-.71-.1-.59-.08-1.07-.12h-.43l-1-.08c-.45 0-.9-.06-1.35-.07s-.93 0-1.39 0a43.66 43.66 0 0 0 -19.89 4.88c-2.43 8.84-5.23 17.6-8.3 26.25q-4 11.34-8.71 22.44a82.55 82.55 0 0 0 -6.13 31.76c0 22.45 8.35 42.09 20.83 52.9h44.43z" fill="#fed9be"/><ellipse cx="267.84" cy="289.42" opacity=".11" rx="58.51" ry="20.17"/><path d="m400.37 46.51s-3.37 110.18-45.15 116.33l-6.05-8.56-42.62-60.28s9.16-13.67 44.16-19.82c34.44-6.07 49.2-26.95 49.65-27.6a0 0 0 0 0 .01-.07z" fill="#fb8b00"/><path d="m319.9 102.51s5.84-6.35 24.46-6.76 27.92-10.35 27.92-10.35-10.5 56.81-32.65 56.68z" fill="#fed9be"/><path d="m400.37 46.51s-3.37 110.18-45.15 116.33l-6.05-8.56s9.13 1.73 25.6-25.95 25.28-80.51 25.59-81.8a0 0 0 0 0 .01-.02z" fill="#ee7900"/><path d="m130.49 46.51s3.36 110.18 45.16 116.33l6-8.56 42.66-60.28s-9.16-13.67-44.16-19.82c-34.44-6.07-49.2-26.95-49.65-27.6a0 0 0 0 1 -.01-.07z" fill="#fb8b00"/><path d="m211 102.51s-5.84-6.35-24.46-6.76-27.96-10.35-27.96-10.35 10.5 56.81 32.65 56.68z" fill="#fed9be"/><path d="m130.49 46.51s3.36 110.18 45.16 116.33l6-8.56s-9.13 1.73-25.6-25.95-25.27-80.51-25.59-81.8a0 0 0 0 1 .03-.02z" fill="#ee7900"/><path d="m400.37 242.49s-41.51 57.89-135.84 57.89-135.82-57.89-135.82-57.89c8.77 0 16.76-4.32 23.54-10.14 7.76-6.67 12.08-15.37 14.87-25.22a166.09 166.09 0 0 0 4.09-21.06c6.79-47.07 27.12-100.67 93.32-100.67 1.86 0 3.69 0 5.48.12 63.89 2.8 86.81 54.73 93.39 100.55 1 7.3 1.35 14.34 2.12 20.86 1.17 9.95 3.49 18.71 11.31 25.42 6.77 5.82 14.76 10.14 23.54 10.14z" fill="#ed7e11"/><path d="m270 85.52s-5.47 38.61-5.47 99.88 7.8 86 5.47 115.47c-103.61 0-141.3-58.38-141.3-58.38 8.77 0 16.76-4.32 23.54-10.14 7.76-6.67 12.08-15.37 14.87-25.22a166.09 166.09 0 0 0 4.09-21.06c6.8-47.07 27.13-100.67 93.33-100.67 1.86 0 3.69.04 5.47.12z" fill="#ed7e11"/><path d="m286 262c-4.12-71.27 28.55-117 53.19-141-14.54-19.77-36.5-34.08-69.2-35.52-1.8-.07-3.62-.11-5.48-.11-34 0-55.88 14.12-70.06 34.23 24.8 23.64 66.72 69.76 62.55 142.4-1.18 20.54-15 31.62-24 36a214.46 214.46 0 0 0 31.53 2.28 211.76 211.76 0 0 0 36.21-3c-8.19-4.81-13.6-15.78-14.74-35.28z" fill="#fc9229"/><path d="m400.37 242.49s-40.42 59-135.84 59-135.82-59-135.82-59c8.77 0 16.76-4.32 23.54-10.14 7.76-6.67 12.08-15.37 14.87-25.22 14.82 1.08 34.63-11.44 51.21 7 25.68 28.5 53.34 5.35 53.34 5.35s26.46 23.07 47.6-6.88c15.46-21.91 31.14-5.17 46.25-5.63 1.17 9.95 3.49 18.71 11.31 25.42 6.77 5.78 14.76 10.1 23.54 10.1z" fill="#fed9be"/><path d="m278.24 176c0-21.16 17.17-28.39 38.34-28.39s38.34 7.23 38.34 28.39a38.34 38.34 0 0 1 -76.68 0z" fill="#fff"/><path d="m355 180.07a38.38 38.38 0 0 1 -76.75 0c0-1.24.06-2.46.18-3.67a38.37 38.37 0 0 0 76.39 0 34.3 34.3 0 0 1 .18 3.67z" fill="#f2f2f2"/><path d="m181.43 176c0-21.16 17.17-28.39 38.34-28.39s38.33 7.23 38.33 28.39a38.34 38.34 0 1 1 -76.67 0z" fill="#fff"/><path d="m258.14 180.07a38.38 38.38 0 0 1 -76.75 0c0-1.24.06-2.46.18-3.67a38.37 38.37 0 0 0 76.39 0 34.3 34.3 0 0 1 .18 3.67z" fill="#f2f2f2"/><path d="m331.59 138.66s-36.11-8.93-38.48-12.54 6.89-14.12 14.2-12.12 26.93 14.31 26.85 19.63-2.57 5.03-2.57 5.03z" fill="#663612"/><path d="m333.17 137.77c0-.2 0-.42 0-.64.08-5.32-19.49-17.61-26.85-19.63-5.17-1.42-11.26 3.35-13.6 7.57-.48-4.25 7.83-12.92 14.56-11.08 7.36 2 26.93 14.32 26.85 19.63a7.09 7.09 0 0 1 -.96 4.15z" fill="#753c15"/><path d="m194.73 145.5s34-15.05 35.73-19-9.2-12.74-16.09-9.48-24 18.76-23 24 3.36 4.48 3.36 4.48z" fill="#663612"/><path d="m193 144.89c0-.19-.09-.4-.13-.62-1-5.23 16.15-20.72 23-24 4.85-2.3 11.67 1.35 14.71 5.1-.26-4.27-9.95-11.37-16.26-8.39-6.9 3.26-24 18.77-23.05 24a7.12 7.12 0 0 0 1.73 3.91z" fill="#753c15"/><path d="m282.31 220c0-3.88-5.31-7-11.87-7s-11.86 3.16-11.86 7a5 5 0 0 0 1.55 3.48c2 2.06 3.91 4.16 5.74 6.34a5.81 5.81 0 0 0 9.14 0c1.84-2.18 3.77-4.28 5.75-6.34a5 5 0 0 0 1.55-3.48z" fill="#663612"/><path d="m282.31 220a4 4 0 0 1 -.19 1.24c-1-3.29-5.84-5.79-11.67-5.79s-10.69 2.5-11.69 5.79a4.34 4.34 0 0 1 -.19-1.24c0-3.9 5.32-7 11.88-7s11.86 3.11 11.86 7z" fill="#753c15"/><path d="m339.55 178.62a5.47 5.47 0 1 0 -4.49 4.44 5.47 5.47 0 0 0 4.49-4.44z" fill="#4d2116"/><path d="m245.28 178.62a5.47 5.47 0 1 0 -4.49 4.44 5.47 5.47 0 0 0 4.49-4.44z" fill="#4d2116"/><path d="m264.53 297.36c-63.3 0-130.77-54.87-135.82-54.87 0 0 40.4 59 135.82 59s135.84-59 135.84-59c-5.05 0-72.53 54.87-135.84 54.87z" fill="#f7ccb0"/><path d="m321.78 241.19c-5.09 6.27-4.92 12.29-3.83 16.32a4.15 4.15 0 0 1 -3.66 5.24c-3.31.26-6.61.66-9.88 1.17-25.56 4-49.59 15-62.74 21.94a10.47 10.47 0 0 1 -9.78 0 10.11 10.11 0 0 1 -5.09-6.32 63.93 63.93 0 0 1 .9-38.33 10.41 10.41 0 0 1 11.11-6.89c27.58 3.37 61.21 1.57 79.39.13a4.17 4.17 0 0 1 3.58 6.74z" fill="#663612"/><path d="m304.41 263.92c-25.56 4-49.59 15-62.74 21.94a10.47 10.47 0 0 1 -9.78 0c3.68-6.16 9.65-12.47 19.08-18.22 25.08-15.33 44.46-8.71 53.44-3.72z" fill="#dd686e"/><circle cx="321" cy="180.32" fill="#c0e5eb" opacity=".21" r="44.47"/><circle cx="219.89" cy="183.94" fill="#c0e5eb" opacity=".21" r="44.47"/><path d="m321 229.61a47.62 47.62 0 1 1 47.62-47.61 47.67 47.67 0 0 1 -47.62 47.61zm0-89a41.33 41.33 0 1 0 41.33 41.39 41.38 41.38 0 0 0 -41.33-41.34z" fill="#65a8dd"/><path d="m219.89 231.56a47.62 47.62 0 1 1 47.62-47.62 47.67 47.67 0 0 1 -47.62 47.62zm0-88.95a41.33 41.33 0 1 0 41.32 41.33 41.38 41.38 0 0 0 -41.32-41.33z" fill="#65a8dd"/><path d="m263.17 179.61h12.8v4.76h-12.8z" fill="#65a8dd"/><path d="m500 139c-7.6 32.95-41.11 52.53-41.83 52.94 12.83-79.42-19.63-115.29-19.63-115.29 44.36-5.88 53.94-27.53 55.35-41.5a0 0 0 0 0 0 0 38.59 38.59 0 0 0 -.55-11.68c16.02 63.74 6.66 115.53 6.66 115.53z" fill="#b2d8eb"/><path d="m97.8 264.86s-23 22.52-27 60.27c0 0-12-13.67-17.28-28.33a37.72 37.72 0 0 1 -2.52-12.13c-.31-18.16 10.88-63.09 15.38-75.54a81.22 81.22 0 0 0 3.09 16.69c3.65 12.61 11.53 29.36 28.33 39.04z" fill="#d93f87"/><path d="m66.21 209.87s-20.41 32.4-14.87 77.75c0 0 .37-34.15 17.91-45.59 0-.03-8.82-15.73-3.04-32.16z" fill="#a5326b"/><path d="m500 139c-7.6 32.95-41.11 52.53-41.83 52.94.59-.68 40.51-46.94 35.7-156.78a0 0 0 0 0 0 0c-.17-4-.4-8.1-.7-12.27a3.06 3.06 0 0 1 .09.33l.06.26c16.04 63.73 6.68 115.52 6.68 115.52z" fill="#65a8dd"/><path d="m138.26 467.81-.81 21.34-130.42-34.4-1.03-23.09z" fill="#2d589c"/><path d="m175.41 416.46-37.03 51.19-.12.16-132.26-36.15 45.41-45.02z" fill="#65a8dd"/><path d="m173.52 438.73-36.07 50.42.81-21.34 37.15-51.35z" fill="#1f3d73"/><ellipse cx="90.97" cy="425.32" fill="#f9f1da" rx="15.19" ry="26.05" transform="matrix(.217 -.976 .976 .217 -343.96 421.66)"/><path d="m138.38 467.65-.12.16-.81 21.34-130.42-34.4-1.03-23.09 45.41-45.02z" fill="#1f3d73" opacity=".46" mix-blend-mode="multiply"/><path d="m456.47 430.19-1.71 8.54-83.51 19.37-93.26 21.62-89.67-42.7v-14.51l85.32 1.85 16.79.37 93.86 2.04 39.73.86 31.94 2.52z" fill="#7a8d9d"/><path d="m278.28 468.62-89.96-45.89 181.75-36.72 49.57 51.4z" fill="#acbac3"/><path d="m505.61 277.2-49.25 152.86-.4.09-80.32 17.4 8.65-20.78 63-151.34 49.51-8.43a7.87 7.87 0 0 1 8.81 10.2z" fill="#cddee6"/><path d="m447.31 275.43-63 151.34-8.65 20.78-97.36 21.07 12.15-43.89 34.25-123.85a7.9 7.9 0 0 1 6.28-5.67z" fill="#cddee6"/><path d="m447.31 275.43-63 151.34-8.65 20.78-97.36 21.07 12.15-43.89 34.25-123.85a7.9 7.9 0 0 1 6.28-5.67z" fill="#cddee6" opacity=".44" mix-blend-mode="multiply"/><path d="m375.64 447.55-4.39 10.55-93.26 21.62.29-11.1z" fill="#7a8d9d" opacity=".44" mix-blend-mode="multiply"/></g></g></svg>