<?xml version="1.0" encoding="UTF-8"?>
<svg xmlns="http://www.w3.org/2000/svg" xmlns:xlink="http://www.w3.org/1999/xlink" version="1.1" id="Layer_1" x="0px" y="0px" viewBox="0 0 512 512" style="enable-background:new 0 0 512 512;" xml:space="preserve" width="512" height="512">
<style type="text/css">
	.st0{fill:#C0E3FF;}
	.st1{fill:#DCF8FF;}
	.st2{fill:#F88F1C;}
	.st3{fill:#ED7E11;}
	.st4{fill:#FFA143;}
	.st5{fill:#FED9BE;}
	.st6{opacity:0.11;}
	.st7{fill:#FB8B00;}
	.st8{fill:#EE7900;}
	.st9{fill:#FC9229;}
	.st10{fill:#663612;}
	.st11{fill:#753C15;}
	.st12{fill:#F7CCB0;}
	.st13{fill:#FFFFFF;}
	.st14{fill:#6FA245;}
	.st15{fill:#D2E4A8;}
	.st16{fill:#F4F6CF;}
	.st17{fill:#D4E3AA;}
	.st18{fill:#F99BCA;}
	.st19{fill:#EB66A3;}
	.st20{fill:#FCC64E;}
	.st21{fill:#B5B5B5;}
	.st22{fill:#919191;}
	.st23{fill:#F2F2F2;}
	.st24{fill:#4D2116;}
	.st25{fill:#DD686E;}
	.st26{opacity:0.21;fill:#C0E5EB;}
	.st27{fill:#65A8DD;}
	.st28{fill:#B2D8EB;}
	.st29{fill:#D93F87;}
	.st30{fill:#A5326B;}
	.st31{fill:#2D589C;}
	.st32{fill:#1F3D73;}
	.st33{fill:#F9F1DA;}
	.st34{opacity:0.46;fill:#1F3D73;}
	.st35{fill:#7A8D9D;}
	.st36{fill:#ACBAC3;}
	.st37{fill:#CDDEE6;}
	.st38{opacity:0.44;fill:#CDDEE6;}
	.st39{opacity:0.44;fill:#7A8D9D;}
	.st40{fill:#CCECFB;}
	.st41{fill:#74747C;}
	.st42{fill:#E27513;}
	.st43{fill:#D86C13;}
	.st44{fill:#F2C2A0;}
	.st45{opacity:0.21;}
	.st46{fill:#3F3F44;}
	.st47{fill:#3F200B;}
	.st48{fill:#454549;}
	.st49{fill:#5D5D65;}
	.st50{fill:#E52669;}
	.st51{fill:#822244;}
	.st52{fill:none;stroke:#FFB100;stroke-width:2.7893;stroke-miterlimit:10;}
	.st53{fill:none;stroke:#D92F2E;stroke-width:2.7893;stroke-miterlimit:10;}
	.st54{fill:#89CDF7;}
	.st55{fill:none;stroke:#C74598;stroke-width:2.7893;stroke-miterlimit:10;}
	.st56{fill:#CC5335;}
	.st57{fill:none;stroke:#FAB131;stroke-width:5.5785;stroke-miterlimit:10;}
	.st58{fill:#ADBAC1;}
	.st59{fill:#D92F2E;}
	.st60{fill:#FAB131;}
	.st61{opacity:0.48;fill:#FFFFFF;}
	.st62{fill:#CAEAF9;}
	.st63{opacity:0.17;}
	.st64{fill:#5B1A5B;}
	.st65{fill:#A52D7D;}
	.st66{fill:#CD3896;}
	.st67{fill:#FBEADF;}
	.st68{fill:#606060;}
	.st69{fill:#E8AE3A;}
	.st70{fill:#FDC84C;}
	.st71{opacity:0.32;fill:#FDE36C;}
	.st72{fill:#FDE36C;}
	.st73{fill:#00CDB3;}
	.st74{fill:#F9B732;}
	.st75{fill:#CB3A94;}
	.st76{fill:#EE66A5;}
	.st77{fill:#FC8DC5;}
	.st78{fill:#C5EAFF;}
	.st79{fill:#74BFED;}
	.st80{opacity:0.36;fill:#FFFFFF;}
	.st81{fill:#AEE6FF;}
	.st82{fill:#FED318;}
	.st83{opacity:0.5;fill:#FED318;}
	.st84{fill:#FFB054;}
	.st85{opacity:0.38;fill:#FFB054;}
	.st86{fill:#CBCFD8;}
	.st87{fill:#D6DAE6;}
	.st88{opacity:0.1;enable-background:new    ;}
	.st89{fill:#DDE1ED;}
	.st90{fill:#FFA0C1;}
	.st91{fill:#2A1D30;}
	.st92{opacity:0.5;fill:#5D436E;}
	.st93{opacity:0.5;fill:#543966;}
	.st94{fill:#543966;}
	.st95{fill:#37D320;}
	.st96{opacity:0.5;fill:#37D320;}
	.st97{fill:#5D436E;}
	.st98{fill:#D87012;}
	.st99{opacity:0.3;fill:#FFFFFF;}
	.st100{fill:#A5694B;}
	.st101{fill:#925F4A;}
	.st102{fill:#B97850;}
	.st103{fill:#F9B85C;}
	.st104{opacity:0.51;}
	.st105{fill:#F8BF9D;}
	.st106{fill:#6E4141;}
	.st107{fill:#784B46;}
	.st108{fill:#A0786E;}
	.st109{opacity:0.19;}
	.st110{fill:#D74B34;}
	.st111{fill:#CEECFD;}
	.st112{opacity:0.56;fill:#C2CACC;}
	.st113{fill-rule:evenodd;clip-rule:evenodd;fill:#CEECFD;}
	.st114{fill:#119E68;}
	.st115{fill:#A2CF7B;}
	.st116{fill:#C32720;}
	.st117{fill:#90278E;}
	.st118{fill:#F98A2E;}
	.st119{fill:#FEC93D;}
	.st120{fill:#FCB215;}
	.st121{opacity:0.21;fill:#3F3F44;}
	.st122{opacity:0.53;fill:#FCB215;}
	.st123{fill:#833723;}
	.st124{opacity:0.17;fill:#612217;}
	.st125{fill:#612217;}
	.st126{opacity:0.25;fill:#422B33;}
	.st127{fill:url(#SVGID_1_);}
	.st128{fill:url(#SVGID_2_);}
	.st129{fill:#F9AA18;}
	.st130{fill:#D1650A;}
	.st131{fill:#FDF2A2;}
	.st132{fill:#ED8710;}
	.st133{fill:#B8590E;}
	.st134{opacity:0.25;}
	.st135{fill:#FDE851;}
	.st136{fill:url(#SVGID_3_);}
	.st137{fill:url(#SVGID_4_);}
	.st138{fill:url(#SVGID_5_);}
	.st139{fill:url(#SVGID_6_);}
	.st140{fill:#F58D15;}
	.st141{fill:#35221D;}
	.st142{fill:url(#SVGID_7_);}
	.st143{fill:url(#SVGID_8_);}
	.st144{fill:url(#SVGID_9_);}
	.st145{fill:url(#SVGID_10_);}
	.st146{fill:url(#SVGID_11_);}
	.st147{fill:url(#SVGID_12_);}
	.st148{fill:none;}
	.st149{fill:url(#SVGID_13_);}
	.st150{fill:url(#SVGID_14_);}
	.st151{fill:url(#SVGID_15_);}
	.st152{fill:url(#SVGID_16_);}
	.st153{fill:url(#SVGID_17_);}
	.st154{fill:url(#SVGID_18_);}
	.st155{fill:url(#SVGID_19_);}
	.st156{fill:url(#SVGID_20_);}
	.st157{fill:url(#SVGID_21_);}
	.st158{fill:url(#SVGID_22_);}
	.st159{fill:url(#SVGID_23_);}
	.st160{fill:url(#SVGID_24_);}
	.st161{fill:url(#SVGID_25_);}
	.st162{fill:url(#SVGID_26_);}
	.st163{fill:url(#SVGID_27_);}
	.st164{fill:url(#SVGID_28_);}
	.st165{fill:none;stroke:#F9AA18;stroke-width:16.3975;stroke-linecap:round;stroke-miterlimit:10;}
	.st166{fill:url(#SVGID_29_);}
	.st167{fill:url(#SVGID_30_);}
	.st168{fill:#FDE86C;}
	.st169{fill:url(#SVGID_31_);}
	.st170{fill:url(#SVGID_32_);}
	.st171{fill:url(#SVGID_33_);}
	.st172{fill:url(#SVGID_34_);}
	.st173{fill:#FDD417;}
	.st174{fill:url(#SVGID_35_);}
	.st175{fill:url(#SVGID_36_);}
	.st176{fill:url(#SVGID_37_);}
	.st177{fill:url(#SVGID_38_);}
	.st178{fill:#7A508F;}
	.st179{fill:#F68E30;}
	.st180{fill:#CD3D98;}
	.st181{fill:#B4D8EA;}
	.st182{fill:#6CC7C2;}
	.st183{fill:#FCE275;}
	.st184{fill:#CE5190;}
	.st185{fill:#F9F9F9;}
	.st186{fill:#DAE7EF;}
	.st187{fill:#EDF6F9;}
	.st188{fill:#D32F2F;}
	.st189{fill:#EF5350;}
	.st190{fill:#B72929;}
	.st191{fill:#E73775;}
	.st192{fill:#C74598;}
	.st193{fill:#FDC74B;}
	.st194{fill:#69A7D9;}
	.st195{fill-rule:evenodd;clip-rule:evenodd;fill:none;stroke:#69A7D9;stroke-width:4.7861;stroke-miterlimit:10;}
	.st196{fill-rule:evenodd;clip-rule:evenodd;fill:#E9AE36;}
	.st197{fill-rule:evenodd;clip-rule:evenodd;fill:#F68D2F;}
	.st198{fill-rule:evenodd;clip-rule:evenodd;fill:#FDC74B;}
	.st199{fill:#DF74AC;}
	.st200{fill:#F6CE0E;}
	.st201{fill:#F49E1D;}
	.st202{fill:#F48020;}
	.st203{fill:#E9AE36;}
	.st204{fill-rule:evenodd;clip-rule:evenodd;fill:#B4D7E8;}
	.st205{fill-rule:evenodd;clip-rule:evenodd;fill:#69A7D9;}
	.st206{opacity:0.62;fill:#ABB9C1;}
	.st207{fill:#B94E9C;}
	.st208{fill:#ECC2DB;}
	.st209{fill:#D8312C;}
	.st210{opacity:0.47;fill:#F06060;}
	.st211{opacity:0.67;fill:#F06060;}
	.st212{opacity:0.66;fill:#A83180;}
	.st213{opacity:0.72;fill:#FFFFFF;}
	.st214{fill:#AAB8C0;}
	.st215{opacity:0.43;fill:#AAB8C0;}
	.st216{fill:#030A26;}
	.st217{fill:#F4ECE6;}
	.st218{fill:#E7E1DA;}
	.st219{fill:#FEFEFE;}
	.st220{fill:#ACBAC2;}
	.st221{fill:#E8AF2E;}
	.st222{fill:#F9CA35;}
	.st223{fill:#C38728;}
	.st224{fill:#153442;}
	.st225{opacity:0.76;fill:#B56321;}
	.st226{fill:#69CBE7;}
	.st227{fill:#C6B9B2;}
	.st228{fill:#189D64;}
	.st229{fill:#189E64;}
	.st230{fill:#A4D17A;}
	.st231{opacity:0.26;fill:#231F19;}
	.st232{fill:#A8DEF3;}
	.st233{fill:#8F2C8C;}
	.st234{fill:#ABB9C1;}
	.st235{fill:#112246;}
	.st236{fill:#7B8B99;}
	.st237{fill:#E3F8FF;}
	.st238{fill:#F45753;}
	.st239{fill:#81FCB8;}
	.st240{fill:#61D8D5;}
	.st241{fill:#F3FBFF;}
	.st242{fill:#009F9F;}
	.st243{fill:#E77B6E;}
	.st244{fill:#EC958B;}
	.st245{fill:#3B3F4A;}
	.st246{fill:#F3C72B;}
	.st247{fill:#464C5A;}
	.st248{fill:#EAB322;}
	.st249{fill:#F6C72A;}
	.st250{fill:#E9B324;}
	.st251{fill:#F8D876;}
	.st252{opacity:0.69;fill:#FFFFFF;}
	.st253{fill:#92CDF4;}
	.st254{fill:#0D2228;}
	.st255{fill:#364D5C;}
	.st256{fill:#7B8C9A;}
	.st257{fill:#CED9DD;}
	.st258{fill-rule:evenodd;clip-rule:evenodd;fill:#FFFFFF;}
	.st259{fill:#143441;}
	.st260{fill:#7C217C;}
	.st261{fill:#3E2945;}
	.st262{fill:#8ABBCF;}
	.st263{fill:#B232B2;}
	.st264{fill:#EEF6FA;}
	.st265{fill:#D1CECD;}
	.st266{fill:#9E9E9E;}
	.st267{opacity:0.1;fill:#424143;enable-background:new    ;}
	.st268{fill:#D4DF74;}
	.st269{fill:#FCFFC0;}
	.st270{fill:#4C361E;}
	.st271{fill:#0C4F4F;}
	.st272{fill:#0A4144;}
	.st273{fill:#DD9403;}
	.st274{fill:#F8AC01;}
	.st275{fill:#DDAD17;}
	.st276{fill:#F3C517;}
	.st277{fill:#0C5058;}
	.st278{fill:#2BA076;}
	.st279{fill:#30B78A;}
	.st280{fill:#2FBC8D;}
	.st281{fill:#32CE9E;}
	.st282{fill:#EA9D03;}
	.st283{fill:#3C4C5B;}
	.st284{fill:#FEC74F;}
	.st285{fill:#D63719;}
	.st286{fill:#C03017;}
	.st287{fill:none;stroke:#C03017;stroke-width:8.3735;stroke-linecap:round;stroke-linejoin:round;stroke-miterlimit:10;}
	.st288{fill-rule:evenodd;clip-rule:evenodd;fill:#D92F2E;}
	.st289{fill-rule:evenodd;clip-rule:evenodd;fill:#EFEAE6;}
	.st290{fill:#EFEAE6;}
	.st291{fill:#CB3E95;}
	.st292{fill:#D365A5;}
	.st293{opacity:0.7;fill:#B5378B;}
	.st294{fill:#F8B02F;}
	.st295{fill:#FBE175;}
	.st296{fill:#FEB95C;}
	.st297{opacity:0.44;fill:#FEB95C;}
	.st298{fill:#415A6B;}
	.st299{fill:#A4D07B;}
	.st300{fill:#F9FF88;}
	.st301{fill:#4A291C;}
	.st302{fill:#EC66A4;}
	.st303{opacity:0.1;fill:#642A7E;}
	.st304{fill:none;stroke:#EEB3D1;stroke-width:2.1491;stroke-linecap:round;stroke-linejoin:round;stroke-miterlimit:10;}
	.st305{opacity:7.000000e-02;fill:#642A7E;}
	.st306{opacity:0.56;fill:#C0C8CA;}
	.st307{fill:#434A54;}
	.st308{fill:#AAB2BD;}
	.st309{fill:#42240D;}
	.st310{fill:#CCD1D9;}
	.st311{fill:#656D78;}
	.st312{fill:#60401F;}
	.st313{fill:#77502D;}
	.st314{fill:#83EAE3;}
	.st315{fill:#BC2F69;}
	.st316{fill:#FBFBFD;}
	.st317{fill:#294E84;}
	.st318{opacity:0.14;}
	.st319{opacity:0.29;fill:#33444F;}
	.st320{fill:#2F5A9A;}
	.st321{fill:#FAD04C;}
	.st322{fill:#3A4D5D;}
	.st323{fill-rule:evenodd;clip-rule:evenodd;fill:#D80027;}
	.st324{fill-rule:evenodd;clip-rule:evenodd;fill:#34424C;}
	.st325{fill-rule:evenodd;clip-rule:evenodd;fill:#4A5860;}
	.st326{fill:#D80027;}
	.st327{fill:#A5001E;}
	.st328{fill:#D8D7DA;}
	.st329{fill:#57565C;}
	.st330{fill:#2D2D30;}
	.st331{fill:#ACABB1;}
	.st332{fill:#FFDAAA;}
	.st333{fill:#FFB655;}
	.st334{fill:#FFC477;}
	.st335{fill:#FFA733;}
	.st336{fill:#163440;}
	.st337{fill:#404142;}
	.st338{fill:#333333;}
	.st339{fill-rule:evenodd;clip-rule:evenodd;fill:#E7E1DA;}
</style>
<g>
	<g>
		<path class="st46" d="M135.2,279.1c-0.1-0.4-9.9-39.7-12.4-87.8c-2.3-44.6,1.6-106.2,32.6-146.2c21.6-27.9,53.6-42,95.1-42.1    c0.1,0,0.3,0,0.4,0c47.3,0,83.1,15.6,106.3,46.3c22.1,29.2,32.6,71.5,31.3,125.5c-1,39.4-8.5,78.6-15.3,102.2l-5.7-1.6    c2.3-8,13.7-50.6,15-100.8C384,122,373.9,81,352.6,52.9C330.5,23.8,296.3,9,251,9c-0.1,0-0.3,0-0.4,0c-39.5,0.1-70,13.5-90.4,39.8    C143.6,70,124.8,112,128.8,190.9c2.4,47.5,12.1,86.3,12.2,86.7L135.2,279.1z"/>
	</g>
	<g>
		<g>
			<path class="st2" d="M387.5,280.8c-27.4,25.6-57.4,39.3-100.8,31.7c0.6-5.6,1.1-11.1,1.6-16.6c0.3-3.1,0.5-6.2,0.7-9.4     c34.6,2.6,56.4-8.7,79.3-29.2c1.9-1.7,6.1-1.6,10,0.2c2.4,1.1,4.7,2.8,6.3,5.2c0,0.1,0.3,0.3,0.4,0.4     C389.7,268.4,390.5,278,387.5,280.8z"/>
		</g>
		<g>
			<path class="st4" d="M273.6,293.6C273.6,293.6,273.6,293.7,273.6,293.6C273.6,293.6,273.6,293.6,273.6,293.6     C273.6,293.6,273.6,293.6,273.6,293.6z"/>
		</g>
		<g>
			<path class="st4" d="M273.6,293.8L273.6,293.8C273.6,293.8,273.6,293.8,273.6,293.8C273.6,293.8,273.6,293.8,273.6,293.8z"/>
		</g>
		<g>
			<path class="st4" d="M378.3,257.4c-0.8,1.5-2.1,3.1-4,5c-23.1,23.4-50.2,36.1-86.1,33.4c0.3-3.1,0.5-6.2,0.7-9.4     c34.6,2.6,56.4-8.7,79.3-29.2C370.2,255.5,374.4,255.6,378.3,257.4z"/>
		</g>
	</g>
	<g>
		<g>
			<path class="st3" d="M229.8,310.6c-35.6,11.7-63.9,6.7-90.4-8.2c-4.7-2.6-9.2-5.5-13.8-8.7c-2.6-1.8-3.6-7.9-2.1-13.3     c0,0,0,0,0,0c0.4-1.6,1.1-3.2,2-4.6c0-0.1,0.3-0.4,0.3-0.5c1.3-2.6,3.3-4.6,5.5-6c3.6-2.3,7.7-3,9.9-1.6     c25.6,17,48.9,25.1,82.7,17.6c0.7,3.1,1.4,6.1,2.1,9.2C227.1,299.8,228.5,305.2,229.8,310.6z"/>
		</g>
		<g>
			<path class="st4" d="M240,290.2C240,290.2,240.1,290.2,240,290.2C240.1,290.1,240,290.1,240,290.2C240,290.1,240,290.1,240,290.2     z"/>
		</g>
		<g>
			<path class="st4" d="M240.1,290.3L240.1,290.3C240.1,290.3,240.1,290.3,240.1,290.3C240.1,290.3,240.1,290.3,240.1,290.3z"/>
		</g>
		<g>
			<path class="st4" d="M131.2,269.3c1,1.3,2.5,2.8,4.6,4.4c26.2,19.8,54.9,28.5,90,20.7c-0.7-3-1.4-6.1-2.1-9.2     c-33.8,7.5-57.1-0.6-82.7-17.6C139,266.2,134.8,266.9,131.2,269.3z"/>
		</g>
	</g>
	<g class="st45">
		<g>
			<path class="st46" d="M290,502.6c0,1.9-17.3,3.4-38.6,3.4c-21.3,0-38.6-1.5-38.6-3.4c0-1.9,17.3-3.4,38.6-3.4     C272.7,499.1,290,500.7,290,502.6z"/>
		</g>
	</g>
	<g>
		<path class="st3" d="M248.1,423.3c0,1.3,0,2.5,0,3.7c-0.1,23.8,1.1,29.5-12.4,33.8c-12.2,3.9-13.1-3.3-13.1-3.3s-1.9,1-3.9-1.2    c-5.2-5.8,9.1-9.1,9.1-9.1l-9.3-28.4c0,0,0,0,0,0l-2.4-7.4C216,411.3,248.4,396.2,248.1,423.3z"/>
	</g>
	<g>
		<path class="st2" d="M287.4,456.3c-2,2.3-3.9,1.2-3.9,1.2s-0.9,7.2-13.1,3.3c-13.4-4.3-12.3-10-12.4-33.8c0-1.2,0-2.4,0-3.7    c-0.3-27,32.1-12,32.1-12l-2.4,7.2l-9.4,28.6C278.3,447.2,292.6,450.6,287.4,456.3z"/>
	</g>
	<g>
		<path class="st2" d="M307.2,355.1c0,42.8-24.2,77.5-54,77.5c-0.4,0-0.7,0-1.1,0c-29.3-0.9-52.9-35.2-52.9-77.5    c0-14.3,2.7-27.6,7.4-39.1c1.8-4.4,3.9-8.6,6.3-12.4c3.5-5.6,7.5-10.5,12-14.4c3.2-2.9,6.7-5.3,10.3-7.1c5.7-2.9,11.7-4.4,18-4.4    c5.2,0,10.1,1,14.9,3c1.4,0.6,2.8,1.3,4.2,2c3.7,2,7.1,4.5,10.4,7.5c3.5,3.3,6.8,7.1,9.6,11.5c2.5,3.8,4.8,7.9,6.7,12.4    C304.2,325.9,307.2,340,307.2,355.1z"/>
	</g>
	<g>
		<path class="st3" d="M253.2,432.5c-0.4,0-0.7,0-1.1,0c-29.3-0.9-52.9-35.2-52.9-77.5c0-14.3,2.7-27.6,7.4-39.1    c1.8-4.4,3.9-8.6,6.3-12.4c3.5-5.6,7.5-10.5,12-14.4c3.2-2.9,6.7-5.3,10.3-7.1c5.7-2.9,11.7-4.4,18-4.4c0,0-12.5,37.6-12.5,85.7    S253.2,432.5,253.2,432.5z"/>
	</g>
	<g>
		<path class="st5" d="M288.2,353.9c0,27.7-15.7,50.2-35,50.2c-2.4,0-4.7-0.3-7-1c-16-4.7-28-24.9-28-49.2c0-9.5,1.8-18.3,5-25.9    c2.5-6,4.9-12.1,7.1-18.2c2.5-7,4.8-14.1,6.7-21.3c5.1-2.6,10.5-4,16.2-4c0.4,0,0.8,0,1.1,0c0.4,0,0.7,0,1.1,0.1h0    c0.3,0,0.6,0,0.8,0.1c0.1,0,0.2,0,0.3,0c0.3,0,0.6,0.1,0.9,0.1c0.2,0,0.3,0,0.5,0.1c0.2,0,0.4,0.1,0.6,0.1c0.1,0,0.2,0,0.4,0.1    c0.3,0.1,0.6,0.1,0.9,0.2c0.4,0.1,0.7,0.1,1.1,0.2c0.3,0.1,0.7,0.2,1,0.3c0,0,0.1,0,0.1,0c0.3,0.1,0.6,0.2,0.9,0.3    c0,0,0.1,0,0.1,0c0.3,0.1,0.7,0.2,1,0.3c0.4,0.1,0.9,0.3,1.3,0.5c0.2,0.1,0.3,0.1,0.5,0.2c0.2,0.1,0.3,0.1,0.5,0.2    c0,0,0.1,0,0.1,0c1.3,0.5,2.5,1.1,3.8,1.8c1.7,6.7,3.6,13.3,5.7,19.8c2.1,6.5,4.5,12.9,7.2,19.2    C286.3,335.6,288.2,344.5,288.2,353.9z"/>
	</g>
	<g class="st6">
		<ellipse cx="251.4" cy="292" rx="47.5" ry="16.4"/>
	</g>
	<g>
		<path class="st7" d="M359.1,94.7c0,0-2.7,89.5-36.7,94.5l-4.9-7l-34.6-49c0,0,7.4-11.1,35.9-16.1    C346.7,112.2,358.7,95.2,359.1,94.7C359.1,94.7,359.1,94.7,359.1,94.7z"/>
	</g>
	<g>
		<path class="st5" d="M293.7,140.2c0,0,4.7-5.2,19.9-5.5c15.1-0.3,22.7-8.4,22.7-8.4s-8.5,46.2-26.5,46.1L293.7,140.2z"/>
	</g>
	<g>
		<path class="st8" d="M359.1,94.7c0,0-2.7,89.5-36.7,94.5l-4.9-7c0,0,7.4,1.4,20.8-21.1C351.7,138.7,358.8,95.7,359.1,94.7    C359.1,94.7,359.1,94.7,359.1,94.7z"/>
	</g>
	<g>
		<path class="st7" d="M139.8,94.7c0,0,2.7,89.5,36.7,94.5l4.9-7l34.6-49c0,0-7.4-11.1-35.9-16.1C152.2,112.2,140.2,95.2,139.8,94.7    C139.8,94.7,139.8,94.7,139.8,94.7z"/>
	</g>
	<g>
		<path class="st5" d="M205.2,140.2c0,0-4.7-5.2-19.9-5.5c-15.1-0.3-22.7-8.4-22.7-8.4s8.5,46.2,26.5,46.1L205.2,140.2z"/>
	</g>
	<g>
		<path class="st8" d="M139.8,94.7c0,0,2.7,89.5,36.7,94.5l4.9-7c0,0-7.4,1.4-20.8-21.1C147.2,138.7,140.1,95.7,139.8,94.7    C139.8,94.7,139.8,94.7,139.8,94.7z"/>
	</g>
	<g>
		<path class="st3" d="M359.1,253.9c0,0-33.7,47-110.4,47s-110.4-47-110.4-47c7.1,0,13.6-3.5,19.1-8.2c6.3-5.4,9.8-12.5,12.1-20.5    c1.5-5.3,2.5-11.1,3.3-17.1c5.5-38.3,22-81.8,75.8-81.8c1.5,0,3,0,4.5,0.1c51.9,2.3,70.5,44.5,75.9,81.7c0.8,5.9,1.1,11.7,1.7,17    c1,8.1,2.8,15.2,9.2,20.7C345.5,250.4,352,253.9,359.1,253.9z"/>
	</g>
	<g>
		<path class="st3" d="M253.2,126.3c0,0-4.4,31.4-4.4,81.2c0,49.8,6.3,69.9,4.4,93.8c-84.2,0-114.8-47.4-114.8-47.4    c7.1,0,13.6-3.5,19.1-8.2c6.3-5.4,9.8-12.5,12.1-20.5c1.5-5.3,2.5-11.1,3.3-17.1c5.5-38.3,22-81.8,75.8-81.8    C250.2,126.2,251.7,126.3,253.2,126.3z"/>
	</g>
	<g>
		<path class="st9" d="M266.2,269.8c-3.3-57.9,23.2-95.1,43.2-114.6c-11.8-16.1-29.7-27.7-56.2-28.9c-1.5-0.1-2.9-0.1-4.5-0.1    c-27.6,0-45.4,11.5-56.9,27.8c20.1,19.2,54.2,56.7,50.8,115.7c-1,16.7-12.2,25.7-19.5,29.3c7.9,1.2,16.5,1.9,25.6,1.9    c10.6,0,20.4-0.9,29.4-2.5C271.5,294.5,267.1,285.6,266.2,269.8z"/>
	</g>
	<g>
		<path class="st5" d="M359.1,253.9c0,0-32.8,47.9-110.4,47.9s-110.4-47.9-110.4-47.9c7.1,0,13.6-3.5,19.1-8.2    c6.3-5.4,9.8-12.5,12.1-20.5c12,0.9,28.1-9.3,41.6,5.7c20.9,23.2,43.3,4.4,43.3,4.4s21.5,18.7,38.7-5.6    c12.6-17.8,25.3-4.2,37.6-4.6c1,8.1,2.8,15.2,9.2,20.7C345.5,250.4,352,253.9,359.1,253.9z"/>
	</g>
	<g>
		<g>
			<path class="st12" d="M248.7,298.5c-51.4,0-106.3-44.6-110.4-44.6c0,0,32.8,47.9,110.4,47.9s110.4-47.9,110.4-47.9     C355,253.9,300.2,298.5,248.7,298.5z"/>
		</g>
	</g>
	<g>
		<g>
			<path class="st10" d="M295,146.1c0,0-22,20.7-25.5,20.7c-3.5,0-6.6-10.9-2-15c4.6-4.1,21.7-12,25.2-9.6     C296.3,144.6,295,146.1,295,146.1z"/>
		</g>
		<g>
			<path class="st11" d="M295.1,144.7c-0.1-0.1-0.3-0.2-0.4-0.3c-3.6-2.4-20.6,5.5-25.2,9.6c-3.3,2.9-2.7,9.2-0.8,12.6     c-3.1-1.6-5.4-11.1-1.1-14.8c4.6-4.1,21.7-12,25.2-9.6C294.2,143.1,294.9,144,295.1,144.7z"/>
		</g>
	</g>
	<g>
		<g>
			<path class="st10" d="M211.9,152.5c0,0,25.3,16.5,28.8,15.9c3.5-0.6,4.6-11.9-0.7-15.2s-23.4-8.1-26.5-5.1     C210.3,151.2,211.9,152.5,211.9,152.5z"/>
		</g>
		<g>
			<path class="st11" d="M211.5,151.1c0.1-0.1,0.2-0.2,0.4-0.4c3.1-3,21.3,1.8,26.5,5.1c3.7,2.3,4.2,8.6,3,12.3     c2.8-2.1,3.3-11.8-1.5-14.8c-5.3-3.3-23.4-8.1-26.5-5.1C212.2,149.4,211.7,150.4,211.5,151.1z"/>
		</g>
	</g>
	<g>
		<g>
			<path class="st10" d="M263.2,235.6c0-3.2-4.3-5.7-9.6-5.7c-5.3,0-9.6,2.6-9.6,5.7c0,1,0.5,2,1.3,2.8c1.6,1.7,3.2,3.4,4.7,5.2     c0.9,1.1,2.3,1.8,3.7,1.8c1.5,0,2.8-0.7,3.7-1.8c1.5-1.8,3.1-3.5,4.7-5.2C262.7,237.6,263.2,236.7,263.2,235.6z"/>
		</g>
		<g>
			<path class="st11" d="M263.2,235.6c0,0.3-0.1,0.7-0.2,1c-0.8-2.7-4.7-4.7-9.5-4.7c-4.7,0-8.7,2-9.5,4.7c-0.1-0.3-0.2-0.7-0.2-1     c0-3.2,4.3-5.7,9.6-5.7C258.9,229.9,263.2,232.5,263.2,235.6z"/>
		</g>
	</g>
	<g>
		<g>
			<g>
				<g>
					<path class="st13" d="M259,193.7c0-17.2,14-23.1,31.2-23.1c17.2,0,31.1,5.9,31.1,23.1c0,17.2-13.9,31.1-31.1,31.1       C273,224.9,259,210.9,259,193.7z"/>
				</g>
			</g>
			<g>
				<g>
					<path class="st23" d="M321.3,197c0,17.2-14,31.2-31.2,31.2c-17.2,0-31.2-14-31.2-31.2c0-1,0-2,0.1-3       c1.5,15.8,14.8,28.2,31,28.2c16.2,0,29.5-12.4,31-28.2C321.3,195,321.3,196,321.3,197z"/>
				</g>
			</g>
		</g>
		<g>
			<path class="st3" d="M323.3,190.1c0,1.7-0.1,3.3-0.4,4.9c-8.7-4-31.8-9.9-64.7-1.1c-0.2-1.2-0.2-2.5-0.2-3.8     c0-17.2,15.2-24.8,32.4-24.8C307.6,165.4,323.3,172.9,323.3,190.1z"/>
		</g>
	</g>
	<g>
		<g>
			<g>
				<g>
					<path class="st13" d="M182.7,193.7c0-17.2,14-23.1,31.2-23.1c17.2,0,31.1,5.9,31.1,23.1c0,17.2-13.9,31.1-31.1,31.1       C196.6,224.9,182.7,210.9,182.7,193.7z"/>
				</g>
			</g>
			<g>
				<g>
					<path class="st23" d="M245,197c0,17.2-14,31.2-31.2,31.2c-17.2,0-31.2-14-31.2-31.2c0-1,0-2,0.1-3c1.5,15.8,14.8,28.2,31,28.2       c16.2,0,29.5-12.4,31-28.2C245,195,245,196,245,197z"/>
				</g>
			</g>
		</g>
		<g>
			<path class="st3" d="M246.7,190.1c0,1.7-0.1,3.3-0.4,4.9c-8.7-4-31.8-9.9-64.7-1.1c-0.2-1.2-0.2-2.5-0.2-3.8     c0-17.2,15.2-24.8,32.4-24.8C231,165.4,246.7,172.9,246.7,190.1z"/>
		</g>
	</g>
	<g>
		<path class="st24" d="M280.5,200.3c0.5-3.1-2.1-5.7-5.1-5.2c-1.8,0.3-3.3,1.8-3.6,3.6c-0.5,3,2.1,5.6,5.1,5.1    C278.7,203.6,280.2,202.1,280.5,200.3z"/>
	</g>
	<g>
		<path class="st24" d="M234.6,200.3c0.5-3.1-2.1-5.7-5.1-5.2c-1.8,0.3-3.3,1.8-3.6,3.6c-0.5,3,2.1,5.6,5.1,5.1    C232.8,203.6,234.3,202.1,234.6,200.3z"/>
	</g>
	<g>
		<path class="st10" d="M224.8,264.2c0,0,37.3-4.4,40.3,20.3C265.1,284.6,269.9,250.8,224.8,264.2z"/>
	</g>
</g>
</svg>
